<?xml version="1.0" encoding="UTF-8" standalone="no"?>
<!-- Created with Inkscape (http://www.inkscape.org/) -->

<svg
   xmlns:dc="http://purl.org/dc/elements/1.1/"
   xmlns:cc="http://creativecommons.org/ns#"
   xmlns:rdf="http://www.w3.org/1999/02/22-rdf-syntax-ns#"
   xmlns:svg="http://www.w3.org/2000/svg"
   xmlns="http://www.w3.org/2000/svg"
   xmlns:sodipodi="http://sodipodi.sourceforge.net/DTD/sodipodi-0.dtd"
   xmlns:inkscape="http://www.inkscape.org/namespaces/inkscape"
   width="2222.9775"
   height="898.474"
   id="svg2"
   version="1.1"
   inkscape:version="0.91 r"
   sodipodi:docname="ghost-group.svg"
   inkscape:export-filename="/home/rahul/ghost.png"
   inkscape:export-xdpi="90"
   inkscape:export-ydpi="90">
  <defs
     id="defs4" />
  <sodipodi:namedview
     id="base"
     pagecolor="#ffffff"
     bordercolor="#666666"
     borderopacity="1.0"
     inkscape:pageopacity="0.0"
     inkscape:pageshadow="2"
     inkscape:zoom="0.38"
     inkscape:cx="1187.6911"
     inkscape:cy="446.40286"
     inkscape:document-units="px"
     inkscape:current-layer="layer1"
     showgrid="false"
     inkscape:window-width="1362"
     inkscape:window-height="703"
     inkscape:window-x="0"
     inkscape:window-y="0"
     inkscape:window-maximized="0"
     fit-margin-top="0"
     fit-margin-left="0"
     fit-margin-right="0"
     fit-margin-bottom="0" />
  <metadata
     id="metadata7">
    <rdf:RDF>
      <cc:Work
         rdf:about="">
        <dc:format>image/svg+xml</dc:format>
        <dc:type
           rdf:resource="http://purl.org/dc/dcmitype/StillImage" />
        <dc:title></dc:title>
      </cc:Work>
    </rdf:RDF>
  </metadata>
  <g
     inkscape:label="Layer 1"
     inkscape:groupmode="layer"
     id="layer1"
     transform="translate(1026.4881,-91.268509)">
    <path
       style="fill:none;stroke:#000000;stroke-width:1px;stroke-linecap:butt;stroke-linejoin:miter;stroke-opacity:1"
       d="m 417.14286,106.6479 c 252.97197,16.07271 196.37742,574.03969 180,754.28573 C 518.83697,552.24882 378.26272,829.22372 557.14285,985.21935 337.68109,929.92495 88.8452,575.09172 135.007,346.21712 166.86163,188.27884 292.93268,98.75614 417.14286,106.6479 Z"
       id="path2985"
       inkscape:connector-curvature="0"
       sodipodi:nodetypes="sccss" />
    <path
       style="fill:none;stroke:#000000;stroke-width:1px;stroke-linecap:butt;stroke-linejoin:miter;stroke-opacity:1"
       d="m 256.86908,430.14023 c -39.71097,8.85253 -65.73733,80.64309 -42.85714,114.28571 15.67484,23.04801 33.10797,7.9516 65.80239,3.50492 30.99103,-4.215 77.45577,4.32615 97.05475,-0.64778 47.85483,-12.14484 -61.022,-147.16984 -120,-117.14285 z"
       id="path2991"
       inkscape:connector-curvature="0"
       sodipodi:nodetypes="csssc" />
    <path
       style="fill:none;stroke:#000000;stroke-width:1px;stroke-linecap:butt;stroke-linejoin:miter;stroke-opacity:1"
       d="m 37.142857,718.07647 c 1.72925,35.4331 60.00973,52.87593 87.333753,36.97678 31.44503,-18.29706 12.66625,-108.40535 12.66625,-108.40535 0,0 -26.74943,28.99417 -39.428578,21.14286 -21.386162,-13.24295 2.285714,-75.42857 2.285714,-75.42857 0,0 -64.690077,8.13606 -62.857139,125.71428 z"
       id="path2993"
       inkscape:connector-curvature="0"
       sodipodi:nodetypes="cacacc" />
    <path
       style="fill:#800000"
       d="M 523.81732,972.25647 C 394.57019,922.46807 251.1938,769.11963 179.1367,603.60278 c -32.60888,-74.90336 -47.09678,-136.70307 -46.88662,-200 0.31602,-95.17655 44.50845,-186.61396 117.26018,-242.62 58.60433,-45.11503 143.32114,-64.052941 202.96433,-45.37139 110.55576,34.62847 164.04215,196.89904 158.67947,481.41245 -1.79453,95.20802 -11.44389,244.73847 -16.09329,249.38784 -0.81913,0.81913 -1.48934,-0.27969 -1.48934,-2.44182 0,-8.15087 -16.75684,-54.30115 -26.71837,-73.58547 -18.19195,-35.2175 -34.09505,-49.67634 -54.63832,-49.67634 -14.43347,0 -27.06986,11.32642 -34.67442,31.07981 -8.12879,21.11511 -9.9011,65.4415 -3.8171,95.46729 8.84358,43.6449 30.57518,86.23245 59.73676,117.0665 7.42855,7.85463 11.85445,14.22324 9.83529,14.1525 -2.01916,-0.0708 -10.78424,-2.86871 -19.47795,-6.21768 l 0,0 z M 263.30827,553.55015 c 10.92971,-2.63908 31.34967,-3.82518 66.34486,-3.85363 48.9973,-0.0397 50.72699,-0.22368 56.12365,-5.96216 10.27525,-10.92623 2.66333,-33.6401 -21.72706,-64.83334 -21.92349,-28.03829 -55.30505,-50.3691 -81.02192,-54.20016 -15.63056,-2.3285 -37.89619,5.87821 -51.32061,18.91585 -22.31413,21.67121 -33.7307,65.56697 -23.80945,91.54536 8.44055,22.10127 21.746,26.51671 55.41053,18.38808 l 0,0 z"
       id="path3018"
       inkscape:connector-curvature="0" />
    <path
       style="fill:#803300"
       d="m 90.93985,758.33124 c -27.305929,-4.43621 -47.945199,-20.04668 -51.490497,-38.94475 -2.216563,-11.8153 2.647308,-51.23076 8.4666,-68.61096 6.008111,-17.94415 20.12662,-38.59966 32.015078,-46.83837 8.349582,-5.78627 16.36504,-8.87357 16.240742,-6.25543 -0.01718,0.36184 -1.779439,7.17105 -3.916134,15.13158 -8.095574,30.16108 -3.549316,57.89474 9.490431,57.89474 6.43515,0 20.15849,-6.74853 27.67324,-13.60848 7.23786,-6.60717 8.00914,-4.57754 10.34305,27.21754 2.17165,29.5846 -1.66273,51.52867 -10.92779,62.53957 -5.67388,6.74303 -9.99559,8.6087 -27.3684,11.8149 -2.171057,0.40067 -6.907899,0.24753 -10.52632,-0.34034 z"
       id="path3020"
       inkscape:connector-curvature="0" />
    <path
       style="fill:#cadfe5;fill-opacity:1"
       d="M 518.03048,968.12144 C 403.27235,921.50039 271.33269,786.05065 197.56373,639.1291 182.83944,609.80355 158.65789,548.86439 150.57252,520.70805 134.55939,464.94418 129.85466,394.42505 139.07287,348.33963 152.2482,282.471 183.32162,224.87814 228.75244,182.12353 c 25.95353,-24.42467 37.96568,-32.69449 68.29737,-47.01962 66.40904,-31.36384 137.98949,-33.01853 184.67951,-4.26914 71.77732,44.1969 112.60595,149.64131 124.97745,322.76801 5.43255,76.02293 2.50755,223.95703 -6.65929,336.79798 -2.11445,26.02837 -3.86884,48.52837 -3.89866,50 -0.0297,1.47166 -3.6445,-7.98219 -8.03271,-21.0085 -15.55481,-46.17427 -36.10563,-81.81019 -53.97055,-93.58711 -5.07361,-3.34463 -12.29871,-5.06831 -21.29276,-5.07976 -11.73242,-0.0158 -14.74274,1.11203 -21.78735,8.15666 -17.29644,17.29644 -22.57052,39.81623 -20.43965,87.27558 2.46902,54.99086 18.38094,95.60371 55.13918,140.73463 8.54669,10.49342 14.56924,19.04602 13.38345,19.00576 -1.18576,-0.0403 -10.68884,-3.53971 -21.11795,-7.77658 z M 324.10619,551.51097 c 41.54499,-2.26511 59.40471,-4.2034 62.5,-6.78303 15.38626,-12.82302 -12.62923,-65.38868 -50.9295,-95.55942 -22.30657,-17.57181 -38.70289,-24.33676 -59.21052,-24.42966 -15.41573,-0.0697 -20.41514,1.08879 -30.6437,7.10179 -25.16494,14.79353 -39.42766,40.6945 -41.23039,74.87408 -0.95644,18.13411 -0.24626,23.37042 4.49926,33.17332 7.50533,15.50392 13.09051,17.94423 37.11167,16.21505 10.85526,-0.78142 45.91169,-2.84787 77.90318,-4.59213 z"
       id="path3022"
       inkscape:connector-curvature="0" />
    <path
       style="fill:#a50c00;fill-opacity:1"
       d="M 74.263642,751.25251 C 44.93387,738.91998 39.558594,729.65113 41.815046,695.29984 c 2.560957,-38.98692 13.816015,-66.10883 35.601438,-85.79065 12.530016,-11.32012 17.608405,-12.65226 14.992339,-3.93272 -0.977052,3.25658 -2.461389,16.2435 -3.298526,28.85982 -1.244121,18.74983 -0.724405,24.15615 2.845984,29.60526 5.885458,8.98234 15.891879,8.64127 31.194349,-1.06327 l 12.18857,-7.72976 1.80126,14.41681 c 3.0972,24.78918 0.27604,59.41635 -5.67302,69.63104 -10.23283,17.57002 -32.689819,22.26374 -57.203798,11.95614 l 0,0 z"
       id="path3024"
       inkscape:connector-curvature="0" />
    <path
       style="fill:#000000;fill-opacity:0"
       d="M 513.57143,964.32313 C 409.51282,920.17044 286.10115,796.34389 211.76046,661.49752 183.10021,609.51078 156.51906,542.09486 146.10275,494.97447 137.85693,457.67268 134.504,383.55252 139.69689,353.36566 c 4.25643,-24.74318 19.27325,-68.92907 31.02873,-91.29979 27.9014,-53.09645 74.42937,-99.65037 122.70726,-122.77566 38.06971,-18.23555 60.07908,-24.00911 97.77013,-25.64736 34.51134,-1.50004 57.67,2.22439 78.34558,12.59974 73.38271,36.82463 115.1741,131.14114 133.975,302.36019 6.9975,63.72582 1.94471,332.02598 -7.40461,393.18169 l -1.57263,10.28692 -8.60992,-22.27047 c -17.28671,-44.71393 -35.20266,-74.68656 -50.17426,-83.93953 -5.63161,-3.48053 -13.03408,-5.15334 -22.80437,-5.15334 -18.13829,0 -25.34982,5.23858 -35.40785,25.72089 -7.22821,14.71961 -7.39236,16.04369 -7.08836,57.17384 0.25105,33.95327 1.39321,46.11919 5.89965,62.83727 7.73877,28.70934 21.28945,55.65566 41.39008,82.3066 9.39056,12.45069 16.73245,22.93311 16.31535,23.29427 -0.41714,0.36115 -9.63998,-3.11185 -20.49524,-7.71779 l 0,0 z M 313.22639,553.35452 c 35.45648,-2.3076 67.17701,-5.22626 70.49008,-6.48587 27.50477,-10.45731 -22.19197,-90.32876 -71.08837,-114.25152 -19.17931,-9.38358 -45.61349,-11.76832 -60.41851,-5.45061 -27.63515,11.79266 -45.25343,40.45345 -48.16686,78.35619 -1.52652,19.85939 -1.05792,23.92536 3.94946,34.26926 9.59334,19.81718 9.43825,19.79721 105.2342,13.56255 z"
       id="path3826"
       inkscape:connector-curvature="0" />
    <path
       style="fill:#000077;fill-opacity:0"
       d="M 513.57143,964.32313 C 409.51282,920.17044 286.10115,796.34389 211.76046,661.49752 183.10021,609.51078 156.51906,542.09486 146.10275,494.97447 137.85693,457.67268 134.504,383.55252 139.69689,353.36566 c 4.25643,-24.74318 19.27325,-68.92907 31.02873,-91.29979 27.9014,-53.09645 74.42937,-99.65037 122.70726,-122.77566 38.06971,-18.23555 60.07908,-24.00911 97.77013,-25.64736 34.51134,-1.50004 57.67,2.22439 78.34558,12.59974 73.38271,36.82463 115.1741,131.14114 133.975,302.36019 6.9975,63.72582 1.94471,332.02598 -7.40461,393.18169 l -1.57263,10.28692 -8.60992,-22.27047 c -17.28671,-44.71393 -35.20266,-74.68656 -50.17426,-83.93953 -5.63161,-3.48053 -13.03408,-5.15334 -22.80437,-5.15334 -18.13829,0 -25.34982,5.23858 -35.40785,25.72089 -7.22821,14.71961 -7.39236,16.04369 -7.08836,57.17384 0.25105,33.95327 1.39321,46.11919 5.89965,62.83727 7.73877,28.70934 21.28945,55.65566 41.39008,82.3066 9.39056,12.45069 16.73245,22.93311 16.31535,23.29427 -0.41714,0.36115 -9.63998,-3.11185 -20.49524,-7.71779 l 0,0 z M 313.22639,553.35452 c 35.45648,-2.3076 67.17701,-5.22626 70.49008,-6.48587 27.50477,-10.45731 -22.19197,-90.32876 -71.08837,-114.25152 -19.17931,-9.38358 -45.61349,-11.76832 -60.41851,-5.45061 -27.63515,11.79266 -45.25343,40.45345 -48.16686,78.35619 -1.52652,19.85939 -1.05792,23.92536 3.94946,34.26926 9.59334,19.81718 9.43825,19.79721 105.2342,13.56255 z"
       id="path3828"
       inkscape:connector-curvature="0" />
    <path
       style="fill:#000077;fill-opacity:0"
       d="M 513.57143,964.32313 C 409.51282,920.17044 286.10115,796.34389 211.76046,661.49752 183.10021,609.51078 156.51906,542.09486 146.10275,494.97447 137.85693,457.67268 134.504,383.55252 139.69689,353.36566 c 4.25643,-24.74318 19.27325,-68.92907 31.02873,-91.29979 27.9014,-53.09645 74.42937,-99.65037 122.70726,-122.77566 38.06971,-18.23555 60.07908,-24.00911 97.77013,-25.64736 34.51134,-1.50004 57.67,2.22439 78.34558,12.59974 73.38271,36.82463 115.1741,131.14114 133.975,302.36019 6.9975,63.72582 1.94471,332.02598 -7.40461,393.18169 l -1.57263,10.28692 -8.60992,-22.27047 c -17.28671,-44.71393 -35.20266,-74.68656 -50.17426,-83.93953 -5.63161,-3.48053 -13.03408,-5.15334 -22.80437,-5.15334 -18.13829,0 -25.34982,5.23858 -35.40785,25.72089 -7.22821,14.71961 -7.39236,16.04369 -7.08836,57.17384 0.25105,33.95327 1.39321,46.11919 5.89965,62.83727 7.73877,28.70934 21.28945,55.65566 41.39008,82.3066 9.39056,12.45069 16.73245,22.93311 16.31535,23.29427 -0.41714,0.36115 -9.63998,-3.11185 -20.49524,-7.71779 l 0,0 z M 313.22639,553.35452 c 35.45648,-2.3076 67.17701,-5.22626 70.49008,-6.48587 27.50477,-10.45731 -22.19197,-90.32876 -71.08837,-114.25152 -19.17931,-9.38358 -45.61349,-11.76832 -60.41851,-5.45061 -27.63515,11.79266 -45.25343,40.45345 -48.16686,78.35619 -1.52652,19.85939 -1.05792,23.92536 3.94946,34.26926 9.59334,19.81718 9.43825,19.79721 105.2342,13.56255 z"
       id="path3830"
       inkscape:connector-curvature="0" />
    <path
       style="fill:#000077;fill-opacity:0"
       d="M 513.57143,964.32313 C 409.51282,920.17044 286.10115,796.34389 211.76046,661.49752 183.10021,609.51078 156.51906,542.09486 146.10275,494.97447 137.85693,457.67268 134.504,383.55252 139.69689,353.36566 c 4.25643,-24.74318 19.27325,-68.92907 31.02873,-91.29979 27.9014,-53.09645 74.42937,-99.65037 122.70726,-122.77566 38.06971,-18.23555 60.07908,-24.00911 97.77013,-25.64736 34.51134,-1.50004 57.67,2.22439 78.34558,12.59974 73.38271,36.82463 115.1741,131.14114 133.975,302.36019 6.9975,63.72582 1.94471,332.02598 -7.40461,393.18169 l -1.57263,10.28692 -8.60992,-22.27047 c -17.28671,-44.71393 -35.20266,-74.68656 -50.17426,-83.93953 -5.63161,-3.48053 -13.03408,-5.15334 -22.80437,-5.15334 -18.13829,0 -25.34982,5.23858 -35.40785,25.72089 -7.22821,14.71961 -7.39236,16.04369 -7.08836,57.17384 0.25105,33.95327 1.39321,46.11919 5.89965,62.83727 7.73877,28.70934 21.28945,55.65566 41.39008,82.3066 9.39056,12.45069 16.73245,22.93311 16.31535,23.29427 -0.41714,0.36115 -9.63998,-3.11185 -20.49524,-7.71779 l 0,0 z M 313.22639,553.35452 c 35.45648,-2.3076 67.17701,-5.22626 70.49008,-6.48587 27.50477,-10.45731 -22.19197,-90.32876 -71.08837,-114.25152 -19.17931,-9.38358 -45.61349,-11.76832 -60.41851,-5.45061 -27.63515,11.79266 -45.25343,40.45345 -48.16686,78.35619 -1.52652,19.85939 -1.05792,23.92536 3.94946,34.26926 9.59334,19.81718 9.43825,19.79721 105.2342,13.56255 z"
       id="path3832"
       inkscape:connector-curvature="0" />
    <path
       style="fill:#0000c6;fill-opacity:0"
       d="M 513.57143,964.32313 C 409.51282,920.17044 286.10115,796.34389 211.76046,661.49752 183.10021,609.51078 156.51906,542.09486 146.10275,494.97447 137.85693,457.67268 134.504,383.55252 139.69689,353.36566 c 4.25643,-24.74318 19.27325,-68.92907 31.02873,-91.29979 27.9014,-53.09645 74.42937,-99.65037 122.70726,-122.77566 38.06971,-18.23555 60.07908,-24.00911 97.77013,-25.64736 34.51134,-1.50004 57.67,2.22439 78.34558,12.59974 73.38271,36.82463 115.1741,131.14114 133.975,302.36019 6.9975,63.72582 1.94471,332.02598 -7.40461,393.18169 l -1.57263,10.28692 -8.60992,-22.27047 c -17.28671,-44.71393 -35.20266,-74.68656 -50.17426,-83.93953 -5.63161,-3.48053 -13.03408,-5.15334 -22.80437,-5.15334 -18.13829,0 -25.34982,5.23858 -35.40785,25.72089 -7.22821,14.71961 -7.39236,16.04369 -7.08836,57.17384 0.25105,33.95327 1.39321,46.11919 5.89965,62.83727 7.73877,28.70934 21.28945,55.65566 41.39008,82.3066 9.39056,12.45069 16.73245,22.93311 16.31535,23.29427 -0.41714,0.36115 -9.63998,-3.11185 -20.49524,-7.71779 l 0,0 z M 313.22639,553.35452 c 35.45648,-2.3076 67.17701,-5.22626 70.49008,-6.48587 27.50477,-10.45731 -22.19197,-90.32876 -71.08837,-114.25152 -19.17931,-9.38358 -45.61349,-11.76832 -60.41851,-5.45061 -27.63515,11.79266 -45.25343,40.45345 -48.16686,78.35619 -1.52652,19.85939 -1.05792,23.92536 3.94946,34.26926 9.59334,19.81718 9.43825,19.79721 105.2342,13.56255 z"
       id="path3834"
       inkscape:connector-curvature="0" />
    <path
       style="fill:#0000c6;fill-opacity:0"
       d="M 513.57143,964.32313 C 409.51282,920.17044 286.10115,796.34389 211.76046,661.49752 183.10021,609.51078 156.51906,542.09486 146.10275,494.97447 137.85693,457.67268 134.504,383.55252 139.69689,353.36566 c 4.25643,-24.74318 19.27325,-68.92907 31.02873,-91.29979 27.9014,-53.09645 74.42937,-99.65037 122.70726,-122.77566 38.06971,-18.23555 60.07908,-24.00911 97.77013,-25.64736 34.51134,-1.50004 57.67,2.22439 78.34558,12.59974 73.38271,36.82463 115.1741,131.14114 133.975,302.36019 6.9975,63.72582 1.94471,332.02598 -7.40461,393.18169 l -1.57263,10.28692 -8.60992,-22.27047 c -17.28671,-44.71393 -35.20266,-74.68656 -50.17426,-83.93953 -5.63161,-3.48053 -13.03408,-5.15334 -22.80437,-5.15334 -18.13829,0 -25.34982,5.23858 -35.40785,25.72089 -7.22821,14.71961 -7.39236,16.04369 -7.08836,57.17384 0.25105,33.95327 1.39321,46.11919 5.89965,62.83727 7.73877,28.70934 21.28945,55.65566 41.39008,82.3066 9.39056,12.45069 16.73245,22.93311 16.31535,23.29427 -0.41714,0.36115 -9.63998,-3.11185 -20.49524,-7.71779 l 0,0 z M 313.22639,553.35452 c 35.45648,-2.3076 67.17701,-5.22626 70.49008,-6.48587 27.50477,-10.45731 -22.19197,-90.32876 -71.08837,-114.25152 -19.17931,-9.38358 -45.61349,-11.76832 -60.41851,-5.45061 -27.63515,11.79266 -45.25343,40.45345 -48.16686,78.35619 -1.52652,19.85939 -1.05792,23.92536 3.94946,34.26926 9.59334,19.81718 9.43825,19.79721 105.2342,13.56255 z"
       id="path3836"
       inkscape:connector-curvature="0" />
    <path
       style="fill:#0000ff;fill-opacity:0"
       d="M 513.57143,964.32313 C 409.51282,920.17044 286.10115,796.34389 211.76046,661.49752 183.10021,609.51078 156.51906,542.09486 146.10275,494.97447 137.85693,457.67268 134.504,383.55252 139.69689,353.36566 c 4.25643,-24.74318 19.27325,-68.92907 31.02873,-91.29979 27.9014,-53.09645 74.42937,-99.65037 122.70726,-122.77566 38.06971,-18.23555 60.07908,-24.00911 97.77013,-25.64736 34.51134,-1.50004 57.67,2.22439 78.34558,12.59974 73.38271,36.82463 115.1741,131.14114 133.975,302.36019 6.9975,63.72582 1.94471,332.02598 -7.40461,393.18169 l -1.57263,10.28692 -8.60992,-22.27047 c -17.28671,-44.71393 -35.20266,-74.68656 -50.17426,-83.93953 -5.63161,-3.48053 -13.03408,-5.15334 -22.80437,-5.15334 -18.13829,0 -25.34982,5.23858 -35.40785,25.72089 -7.22821,14.71961 -7.39236,16.04369 -7.08836,57.17384 0.25105,33.95327 1.39321,46.11919 5.89965,62.83727 7.73877,28.70934 21.28945,55.65566 41.39008,82.3066 9.39056,12.45069 16.73245,22.93311 16.31535,23.29427 -0.41714,0.36115 -9.63998,-3.11185 -20.49524,-7.71779 l 0,0 z M 313.22639,553.35452 c 35.45648,-2.3076 67.17701,-5.22626 70.49008,-6.48587 27.50477,-10.45731 -22.19197,-90.32876 -71.08837,-114.25152 -19.17931,-9.38358 -45.61349,-11.76832 -60.41851,-5.45061 -27.63515,11.79266 -45.25343,40.45345 -48.16686,78.35619 -1.52652,19.85939 -1.05792,23.92536 3.94946,34.26926 9.59334,19.81718 9.43825,19.79721 105.2342,13.56255 z"
       id="path3838"
       inkscape:connector-curvature="0" />
    <path
       style="fill:#0000ff;fill-opacity:1"
       d="M 513.57143,964.32313 C 409.51282,920.17044 286.10115,796.34389 211.76046,661.49752 183.10021,609.51078 156.51906,542.09486 146.10275,494.97447 137.85693,457.67268 134.504,383.55252 139.69689,353.36566 c 4.25643,-24.74318 19.27325,-68.92907 31.02873,-91.29979 27.9014,-53.09645 74.42937,-99.65037 122.70726,-122.77566 38.06971,-18.23555 60.07908,-24.00911 97.77013,-25.64736 34.51134,-1.50004 57.67,2.22439 78.34558,12.59974 73.38271,36.82463 115.1741,131.14114 133.975,302.36019 6.9975,63.72582 1.94471,332.02598 -7.40461,393.18169 l -1.57263,10.28692 -8.60992,-22.27047 c -17.28671,-44.71393 -35.20266,-74.68656 -50.17426,-83.93953 -5.63161,-3.48053 -13.03408,-5.15334 -22.80437,-5.15334 -18.13829,0 -25.34982,5.23858 -35.40785,25.72089 -7.22821,14.71961 -7.39236,16.04369 -7.08836,57.17384 0.25105,33.95327 1.39321,46.11919 5.89965,62.83727 7.73877,28.70934 21.28945,55.65566 41.39008,82.3066 9.39056,12.45069 16.73245,22.93311 16.31535,23.29427 -0.41714,0.36115 -9.63998,-3.11185 -20.49524,-7.71779 l 0,0 z M 313.22639,553.35452 c 35.45648,-2.3076 67.17701,-5.22626 70.49008,-6.48587 27.50477,-10.45731 -22.19197,-90.32876 -71.08837,-114.25152 -19.17931,-9.38358 -45.61349,-11.76832 -60.41851,-5.45061 -27.63515,11.79266 -45.25343,40.45345 -48.16686,78.35619 -1.52652,19.85939 -1.05792,23.92536 3.94946,34.26926 9.59334,19.81718 9.43825,19.79721 105.2342,13.56255 z"
       id="path3840"
       inkscape:connector-curvature="0" />
    <path
       style="fill:#e2e8ef;fill-opacity:1"
       d="M 500.98619,956.37334 C 452.63267,932.83918 404.92906,896.83452 352.94489,844.63802 255.99246,747.28957 188.61351,636.66731 154.03937,518.07647 c -9.69372,-33.24992 -14.05001,-69.84298 -14.10394,-118.47395 -0.0394,-35.51186 0.9271,-47.07898 5.2771,-63.15789 16.51889,-61.05881 37.62252,-100.02665 75.82739,-140.01524 34.58472,-36.19942 63.72922,-54.70388 111.71178,-70.92818 20.64215,-6.97971 29.26148,-8.38785 58.06074,-9.48536 38.71878,-1.47552 55.46359,1.26973 79.72778,13.07112 56.78787,27.61994 97.86466,102.3223 119.114,216.62108 14.22337,76.50647 14.72408,84.08444 14.43252,218.42105 -0.24552,113.09837 -2.9975,197.95708 -7.95579,245.31489 l -1.71365,16.36753 -12.4324,-28.80524 c -14.66558,-33.97944 -26.83345,-54.80318 -38.80063,-66.40223 -7.69189,-7.45527 -10.70118,-8.52821 -26.38434,-9.40711 -20.87269,-1.16973 -27.67782,2.75553 -39.40626,22.7299 -6.4979,11.06637 -7.32269,15.29855 -8.17864,41.96708 -2.2055,68.71702 9.35961,109.39139 46.00177,161.78781 7.84439,11.21711 13.26179,20.39474 12.03863,20.39474 -1.22313,0 -13.04432,-5.2664 -26.26924,-11.70313 l 0,0 z M 326.71423,553.47981 c 63.67344,-4.795 67.12777,-6.05242 65.13741,-23.71087 -3.9529,-35.07005 -53.2124,-90.75705 -90.71666,-102.55358 -22.00383,-6.92105 -46.23866,-4.62163 -61.38906,5.82466 -23.01107,15.86629 -36.70081,45.74142 -36.70081,80.09226 0,20.58653 4.43444,33.801 13.46546,40.12658 7.96771,5.58079 38.22367,5.64145 110.20366,0.22106 l 0,-1.1e-4 z"
       id="path3844"
       inkscape:connector-curvature="0" />
    <path
       style="fill:none;stroke:#000000;stroke-width:1.0010798px;stroke-linecap:butt;stroke-linejoin:miter;stroke-opacity:1"
       d="m -277.9363,108.05402 c -253.51857,16.07272 -196.80173,574.0397 -180.38893,754.28574 78.47509,-308.68481 219.35307,-31.70991 40.08644,124.28572 C -198.30284,931.33108 51.07071,576.49785 4.8091697,347.62325 -27.11429,189.68497 -153.45775,100.16226 -277.9363,108.05402 Z"
       id="path2985-2"
       inkscape:connector-curvature="0"
       sodipodi:nodetypes="sccss" />
    <path
       style="fill:none;stroke:#000000;stroke-width:1.0010798px;stroke-linecap:butt;stroke-linejoin:miter;stroke-opacity:1"
       d="m -117.31622,431.54636 c 39.796775,8.85253 65.879365,80.64309 42.949745,114.28571 -15.70871,23.04801 -33.179515,7.9516 -65.944575,3.50492 -31.05799,-4.215 -77.62313,4.32615 -97.26446,-0.64778 -47.95822,-12.14484 61.15385,-147.16984 120.25929,-117.14285 z"
       id="path2991-8"
       inkscape:connector-curvature="0"
       sodipodi:nodetypes="csssc" />
    <path
       style="fill:#800000"
       d="m -384.84125,973.6626 c 129.52639,-49.7884 273.21257,-203.13684 345.425365,-368.65369 32.6793447,-74.90336 47.1985447,-136.70307 46.9879347,-200 -0.3167,-95.17655 -44.6046247,-186.61396 -117.5135497,-242.62 -58.73096,-45.11503 -143.63082,-64.052949 -203.40287,-45.37139 -110.79464,34.62847 -164.3966,196.89904 -159.02233,481.41245 1.79841,95.20802 11.46862,244.73847 16.12806,249.38784 0.8209,0.81913 1.49256,-0.27969 1.49256,-2.44182 0,-8.15087 16.79305,-54.30115 26.7761,-73.58547 18.23126,-35.2175 34.16872,-49.67634 54.75638,-49.67634 14.46465,0 27.12835,11.32642 34.74934,31.07981 8.14635,21.11511 9.92249,65.4415 3.82535,95.46729 -8.86269,43.6449 -30.64125,86.23245 -59.86584,117.0665 -7.4446,7.85463 -11.88006,14.22324 -9.85654,14.1525 2.02352,-0.0708 10.80754,-2.86871 19.52004,-6.21768 l 0,0 z m 261.07192,-418.70632 c -10.95332,-2.63908 -31.4174,-3.82518 -66.48821,-3.85363 -49.10316,-0.0397 -50.83659,-0.22368 -56.24491,-5.96216 -10.29745,-10.92623 -2.66909,-33.6401 21.774,-64.83334 21.97086,-28.03829 55.42455,-50.3691 81.19699,-54.20016 15.66433,-2.3285 37.97807,5.87821 51.431495,18.91585 22.36235,21.67121 33.80358,65.56697 23.8609,91.54536 -8.45879,22.10127 -21.79299,26.51671 -55.530265,18.38808 l 0,0 z"
       id="path3018-0"
       inkscape:connector-curvature="0" />
    <path
       style="fill:#cadfe5;fill-opacity:1"
       d="M -379.04191,969.52757 C -264.03583,922.90652 -131.81108,787.45678 -57.882725,640.53523 -43.126625,611.20968 -18.89282,550.27052 -10.78998,522.11418 5.2577497,466.35031 9.9726397,395.83118 0.73451974,349.74576 -12.46928,283.87713 -43.609845,226.28427 -89.138825,183.52966 -115.14844,159.10499 -127.18654,150.83517 -157.58377,136.51004 -224.1363,105.14619 -295.87141,103.4915 -342.66231,132.2409 c -71.93241,44.1969 -112.84926,149.64131 -125.24749,322.76801 -5.44429,76.02293 -2.51297,223.95703 6.67368,336.79798 2.11902,26.02837 3.8772,48.52837 3.90708,50 0.0298,1.47166 3.65238,-7.98219 8.05007,-21.0085 15.58842,-46.17427 36.18364,-81.81019 54.08716,-93.58711 5.08457,-3.34463 12.32528,-5.06831 21.33877,-5.07976 11.75777,-0.0158 14.77459,1.11203 21.83442,8.15666 17.33382,17.29644 22.61929,39.81623 20.48382,87.27558 -2.47436,54.99086 -18.42066,95.60371 -55.25832,140.73463 -8.56516,10.49342 -14.60072,19.04602 -13.41237,19.00576 1.18832,-0.0403 10.71194,-3.53971 21.16358,-7.77658 z m 194.3433,-416.61047 c -41.63476,-2.26511 -59.53307,-4.2034 -62.63504,-6.78303 -15.41951,-12.82302 12.65651,-65.38868 51.03954,-95.55942 22.35477,-17.57181 38.78651,-24.33676 59.33845,-24.42966 15.44904,-0.0697 20.45925,1.08879 30.70991,7.10179 25.219325,14.79353 39.512865,40.6945 41.319485,74.87408 0.95851,18.13411 0.24679,23.37042 -4.50898,33.17332 -7.52155,15.50392 -13.1188,17.94423 -37.191865,16.21505 -10.87871,-0.78142 -46.01089,-2.84787 -78.0715,-4.59213 z"
       id="path3022-2"
       inkscape:connector-curvature="0" />
    <path
       style="fill:#000000;fill-opacity:0"
       d="M -374.57322,965.72926 C -270.28978,921.57657 -146.61145,797.75002 -72.110135,662.90365 -43.387955,610.91691 -16.74937,543.50099 -6.3105503,496.3806 1.9530797,459.07881 5.3132597,384.95865 0.10914974,354.77179 -4.1564803,330.02861 -19.20574,285.84272 -30.98662,263.472 c -27.961695,-53.09645 -74.5902,-99.65037 -122.97241,-122.77566 -38.15196,-18.23555 -60.20889,-24.00911 -97.98138,-25.64736 -34.5859,-1.50004 -57.7946,2.22439 -78.51485,12.59974 -73.54127,36.82463 -115.42296,131.14114 -134.26448,302.36019 -7.01262,63.72582 -1.94891,332.02598 7.42061,393.18169 l 1.57602,10.28692 8.62853,-22.27047 c 17.32406,-44.71393 35.27872,-74.68656 50.28267,-83.93953 5.64378,-3.48053 13.06224,-5.15334 22.85364,-5.15334 18.17748,0 25.40459,5.23858 35.48436,25.72089 7.24382,14.71961 7.40833,16.04369 7.10367,57.17384 -0.25159,33.95327 -1.39622,46.11919 -5.91239,62.83727 -7.7555,28.70934 -21.33545,55.65566 -41.47952,82.3066 -9.41085,12.45069 -16.7686,22.93311 -16.3506,23.29427 0.41804,0.36115 9.66081,-3.11185 20.53953,-7.71779 l 0,0 z M -173.7953,554.76065 c -35.53309,-2.3076 -67.32216,-5.22626 -70.64239,-6.48587 -27.5642,-10.45731 22.23992,-90.32876 71.24197,-114.25152 19.22075,-9.38358 45.71205,-11.76832 60.54905,-5.45061 27.694865,11.79266 45.351215,40.45345 48.270945,78.35619 1.52982,19.85939 1.0602,23.92536 -3.958,34.26926 -9.61406,19.81718 -9.45864,19.79721 -105.461575,13.56255 z"
       id="path3826-1"
       inkscape:connector-curvature="0" />
    <path
       style="fill:#000077;fill-opacity:0"
       d="M -374.57322,965.72926 C -270.28978,921.57657 -146.61145,797.75002 -72.110135,662.90365 -43.387955,610.91691 -16.74937,543.50099 -6.3105503,496.3806 1.9530797,459.07881 5.3132597,384.95865 0.10914974,354.77179 -4.1564803,330.02861 -19.20574,285.84272 -30.98662,263.472 c -27.961695,-53.09645 -74.5902,-99.65037 -122.97241,-122.77566 -38.15196,-18.23555 -60.20889,-24.00911 -97.98138,-25.64736 -34.5859,-1.50004 -57.7946,2.22439 -78.51485,12.59974 -73.54127,36.82463 -115.42296,131.14114 -134.26448,302.36019 -7.01262,63.72582 -1.94891,332.02598 7.42061,393.18169 l 1.57602,10.28692 8.62853,-22.27047 c 17.32406,-44.71393 35.27872,-74.68656 50.28267,-83.93953 5.64378,-3.48053 13.06224,-5.15334 22.85364,-5.15334 18.17748,0 25.40459,5.23858 35.48436,25.72089 7.24382,14.71961 7.40833,16.04369 7.10367,57.17384 -0.25159,33.95327 -1.39622,46.11919 -5.91239,62.83727 -7.7555,28.70934 -21.33545,55.65566 -41.47952,82.3066 -9.41085,12.45069 -16.7686,22.93311 -16.3506,23.29427 0.41804,0.36115 9.66081,-3.11185 20.53953,-7.71779 l 0,0 z M -173.7953,554.76065 c -35.53309,-2.3076 -67.32216,-5.22626 -70.64239,-6.48587 -27.5642,-10.45731 22.23992,-90.32876 71.24197,-114.25152 19.22075,-9.38358 45.71205,-11.76832 60.54905,-5.45061 27.694865,11.79266 45.351215,40.45345 48.270945,78.35619 1.52982,19.85939 1.0602,23.92536 -3.958,34.26926 -9.61406,19.81718 -9.45864,19.79721 -105.461575,13.56255 z"
       id="path3828-3"
       inkscape:connector-curvature="0" />
    <path
       style="fill:#000077;fill-opacity:0"
       d="M -374.57322,965.72926 C -270.28978,921.57657 -146.61145,797.75002 -72.110135,662.90365 -43.387955,610.91691 -16.74937,543.50099 -6.3105503,496.3806 1.9530797,459.07881 5.3132597,384.95865 0.10914974,354.77179 -4.1564803,330.02861 -19.20574,285.84272 -30.98662,263.472 c -27.961695,-53.09645 -74.5902,-99.65037 -122.97241,-122.77566 -38.15196,-18.23555 -60.20889,-24.00911 -97.98138,-25.64736 -34.5859,-1.50004 -57.7946,2.22439 -78.51485,12.59974 -73.54127,36.82463 -115.42296,131.14114 -134.26448,302.36019 -7.01262,63.72582 -1.94891,332.02598 7.42061,393.18169 l 1.57602,10.28692 8.62853,-22.27047 c 17.32406,-44.71393 35.27872,-74.68656 50.28267,-83.93953 5.64378,-3.48053 13.06224,-5.15334 22.85364,-5.15334 18.17748,0 25.40459,5.23858 35.48436,25.72089 7.24382,14.71961 7.40833,16.04369 7.10367,57.17384 -0.25159,33.95327 -1.39622,46.11919 -5.91239,62.83727 -7.7555,28.70934 -21.33545,55.65566 -41.47952,82.3066 -9.41085,12.45069 -16.7686,22.93311 -16.3506,23.29427 0.41804,0.36115 9.66081,-3.11185 20.53953,-7.71779 l 0,0 z M -173.7953,554.76065 c -35.53309,-2.3076 -67.32216,-5.22626 -70.64239,-6.48587 -27.5642,-10.45731 22.23992,-90.32876 71.24197,-114.25152 19.22075,-9.38358 45.71205,-11.76832 60.54905,-5.45061 27.694865,11.79266 45.351215,40.45345 48.270945,78.35619 1.52982,19.85939 1.0602,23.92536 -3.958,34.26926 -9.61406,19.81718 -9.45864,19.79721 -105.461575,13.56255 z"
       id="path3830-5"
       inkscape:connector-curvature="0" />
    <path
       style="fill:#000077;fill-opacity:0"
       d="M -374.57322,965.72926 C -270.28978,921.57657 -146.61145,797.75002 -72.110135,662.90365 -43.387955,610.91691 -16.74937,543.50099 -6.3105503,496.3806 1.9530797,459.07881 5.3132597,384.95865 0.10914974,354.77179 -4.1564803,330.02861 -19.20574,285.84272 -30.98662,263.472 c -27.961695,-53.09645 -74.5902,-99.65037 -122.97241,-122.77566 -38.15196,-18.23555 -60.20889,-24.00911 -97.98138,-25.64736 -34.5859,-1.50004 -57.7946,2.22439 -78.51485,12.59974 -73.54127,36.82463 -115.42296,131.14114 -134.26448,302.36019 -7.01262,63.72582 -1.94891,332.02598 7.42061,393.18169 l 1.57602,10.28692 8.62853,-22.27047 c 17.32406,-44.71393 35.27872,-74.68656 50.28267,-83.93953 5.64378,-3.48053 13.06224,-5.15334 22.85364,-5.15334 18.17748,0 25.40459,5.23858 35.48436,25.72089 7.24382,14.71961 7.40833,16.04369 7.10367,57.17384 -0.25159,33.95327 -1.39622,46.11919 -5.91239,62.83727 -7.7555,28.70934 -21.33545,55.65566 -41.47952,82.3066 -9.41085,12.45069 -16.7686,22.93311 -16.3506,23.29427 0.41804,0.36115 9.66081,-3.11185 20.53953,-7.71779 l 0,0 z M -173.7953,554.76065 c -35.53309,-2.3076 -67.32216,-5.22626 -70.64239,-6.48587 -27.5642,-10.45731 22.23992,-90.32876 71.24197,-114.25152 19.22075,-9.38358 45.71205,-11.76832 60.54905,-5.45061 27.694865,11.79266 45.351215,40.45345 48.270945,78.35619 1.52982,19.85939 1.0602,23.92536 -3.958,34.26926 -9.61406,19.81718 -9.45864,19.79721 -105.461575,13.56255 z"
       id="path3832-5"
       inkscape:connector-curvature="0" />
    <path
       style="fill:#0000c6;fill-opacity:0"
       d="M -374.57322,965.72926 C -270.28978,921.57657 -146.61145,797.75002 -72.110135,662.90365 -43.387955,610.91691 -16.74937,543.50099 -6.3105503,496.3806 1.9530797,459.07881 5.3132597,384.95865 0.10914974,354.77179 -4.1564803,330.02861 -19.20574,285.84272 -30.98662,263.472 c -27.961695,-53.09645 -74.5902,-99.65037 -122.97241,-122.77566 -38.15196,-18.23555 -60.20889,-24.00911 -97.98138,-25.64736 -34.5859,-1.50004 -57.7946,2.22439 -78.51485,12.59974 -73.54127,36.82463 -115.42296,131.14114 -134.26448,302.36019 -7.01262,63.72582 -1.94891,332.02598 7.42061,393.18169 l 1.57602,10.28692 8.62853,-22.27047 c 17.32406,-44.71393 35.27872,-74.68656 50.28267,-83.93953 5.64378,-3.48053 13.06224,-5.15334 22.85364,-5.15334 18.17748,0 25.40459,5.23858 35.48436,25.72089 7.24382,14.71961 7.40833,16.04369 7.10367,57.17384 -0.25159,33.95327 -1.39622,46.11919 -5.91239,62.83727 -7.7555,28.70934 -21.33545,55.65566 -41.47952,82.3066 -9.41085,12.45069 -16.7686,22.93311 -16.3506,23.29427 0.41804,0.36115 9.66081,-3.11185 20.53953,-7.71779 l 0,0 z M -173.7953,554.76065 c -35.53309,-2.3076 -67.32216,-5.22626 -70.64239,-6.48587 -27.5642,-10.45731 22.23992,-90.32876 71.24197,-114.25152 19.22075,-9.38358 45.71205,-11.76832 60.54905,-5.45061 27.694865,11.79266 45.351215,40.45345 48.270945,78.35619 1.52982,19.85939 1.0602,23.92536 -3.958,34.26926 -9.61406,19.81718 -9.45864,19.79721 -105.461575,13.56255 z"
       id="path3834-4"
       inkscape:connector-curvature="0" />
    <path
       style="fill:#0000c6;fill-opacity:0"
       d="M -374.57322,965.72926 C -270.28978,921.57657 -146.61145,797.75002 -72.110135,662.90365 -43.387955,610.91691 -16.74937,543.50099 -6.3105503,496.3806 1.9530797,459.07881 5.3132597,384.95865 0.10914974,354.77179 -4.1564803,330.02861 -19.20574,285.84272 -30.98662,263.472 c -27.961695,-53.09645 -74.5902,-99.65037 -122.97241,-122.77566 -38.15196,-18.23555 -60.20889,-24.00911 -97.98138,-25.64736 -34.5859,-1.50004 -57.7946,2.22439 -78.51485,12.59974 -73.54127,36.82463 -115.42296,131.14114 -134.26448,302.36019 -7.01262,63.72582 -1.94891,332.02598 7.42061,393.18169 l 1.57602,10.28692 8.62853,-22.27047 c 17.32406,-44.71393 35.27872,-74.68656 50.28267,-83.93953 5.64378,-3.48053 13.06224,-5.15334 22.85364,-5.15334 18.17748,0 25.40459,5.23858 35.48436,25.72089 7.24382,14.71961 7.40833,16.04369 7.10367,57.17384 -0.25159,33.95327 -1.39622,46.11919 -5.91239,62.83727 -7.7555,28.70934 -21.33545,55.65566 -41.47952,82.3066 -9.41085,12.45069 -16.7686,22.93311 -16.3506,23.29427 0.41804,0.36115 9.66081,-3.11185 20.53953,-7.71779 l 0,0 z M -173.7953,554.76065 c -35.53309,-2.3076 -67.32216,-5.22626 -70.64239,-6.48587 -27.5642,-10.45731 22.23992,-90.32876 71.24197,-114.25152 19.22075,-9.38358 45.71205,-11.76832 60.54905,-5.45061 27.694865,11.79266 45.351215,40.45345 48.270945,78.35619 1.52982,19.85939 1.0602,23.92536 -3.958,34.26926 -9.61406,19.81718 -9.45864,19.79721 -105.461575,13.56255 z"
       id="path3836-5"
       inkscape:connector-curvature="0" />
    <path
       style="fill:#0000ff;fill-opacity:0"
       d="M -374.57322,965.72926 C -270.28978,921.57657 -146.61145,797.75002 -72.110135,662.90365 -43.387955,610.91691 -16.74937,543.50099 -6.3105503,496.3806 1.9530797,459.07881 5.3132597,384.95865 0.10914974,354.77179 -4.1564803,330.02861 -19.20574,285.84272 -30.98662,263.472 c -27.961695,-53.09645 -74.5902,-99.65037 -122.97241,-122.77566 -38.15196,-18.23555 -60.20889,-24.00911 -97.98138,-25.64736 -34.5859,-1.50004 -57.7946,2.22439 -78.51485,12.59974 -73.54127,36.82463 -115.42296,131.14114 -134.26448,302.36019 -7.01262,63.72582 -1.94891,332.02598 7.42061,393.18169 l 1.57602,10.28692 8.62853,-22.27047 c 17.32406,-44.71393 35.27872,-74.68656 50.28267,-83.93953 5.64378,-3.48053 13.06224,-5.15334 22.85364,-5.15334 18.17748,0 25.40459,5.23858 35.48436,25.72089 7.24382,14.71961 7.40833,16.04369 7.10367,57.17384 -0.25159,33.95327 -1.39622,46.11919 -5.91239,62.83727 -7.7555,28.70934 -21.33545,55.65566 -41.47952,82.3066 -9.41085,12.45069 -16.7686,22.93311 -16.3506,23.29427 0.41804,0.36115 9.66081,-3.11185 20.53953,-7.71779 l 0,0 z M -173.7953,554.76065 c -35.53309,-2.3076 -67.32216,-5.22626 -70.64239,-6.48587 -27.5642,-10.45731 22.23992,-90.32876 71.24197,-114.25152 19.22075,-9.38358 45.71205,-11.76832 60.54905,-5.45061 27.694865,11.79266 45.351215,40.45345 48.270945,78.35619 1.52982,19.85939 1.0602,23.92536 -3.958,34.26926 -9.61406,19.81718 -9.45864,19.79721 -105.461575,13.56255 z"
       id="path3838-2"
       inkscape:connector-curvature="0" />
    <path
       style="fill:#0000ff;fill-opacity:1"
       d="M -374.57322,965.72926 C -270.28978,921.57657 -146.61145,797.75002 -72.110135,662.90365 -43.387955,610.91691 -16.74937,543.50099 -6.3105503,496.3806 1.9530797,459.07881 5.3132597,384.95865 0.10914974,354.77179 -4.1564803,330.02861 -19.20574,285.84272 -30.98662,263.472 c -27.961695,-53.09645 -74.5902,-99.65037 -122.97241,-122.77566 -38.15196,-18.23555 -60.20889,-24.00911 -97.98138,-25.64736 -34.5859,-1.50004 -57.7946,2.22439 -78.51485,12.59974 -73.54127,36.82463 -115.42296,131.14114 -134.26448,302.36019 -7.01262,63.72582 -1.94891,332.02598 7.42061,393.18169 l 1.57602,10.28692 8.62853,-22.27047 c 17.32406,-44.71393 35.27872,-74.68656 50.28267,-83.93953 5.64378,-3.48053 13.06224,-5.15334 22.85364,-5.15334 18.17748,0 25.40459,5.23858 35.48436,25.72089 7.24382,14.71961 7.40833,16.04369 7.10367,57.17384 -0.25159,33.95327 -1.39622,46.11919 -5.91239,62.83727 -7.7555,28.70934 -21.33545,55.65566 -41.47952,82.3066 -9.41085,12.45069 -16.7686,22.93311 -16.3506,23.29427 0.41804,0.36115 9.66081,-3.11185 20.53953,-7.71779 l 0,0 z M -173.7953,554.76065 c -35.53309,-2.3076 -67.32216,-5.22626 -70.64239,-6.48587 -27.5642,-10.45731 22.23992,-90.32876 71.24197,-114.25152 19.22075,-9.38358 45.71205,-11.76832 60.54905,-5.45061 27.694865,11.79266 45.351215,40.45345 48.270945,78.35619 1.52982,19.85939 1.0602,23.92536 -3.958,34.26926 -9.61406,19.81718 -9.45864,19.79721 -105.461575,13.56255 z"
       id="path3840-5"
       inkscape:connector-curvature="0" />
    <path
       style="fill:#e2e8ef;fill-opacity:1"
       d="m -361.96079,957.77947 c 48.458,-23.53416 96.26468,-59.53882 148.36117,-111.73532 97.16191,-97.34845 164.686455,-207.97071 199.3353,-326.56155 9.7146597,-33.24992 14.08036974,-69.84298 14.13440974,-118.47395 0.0395,-35.51186 -0.92910004,-47.07898 -5.28850004,-63.15789 C -21.97299,276.79195 -43.122225,237.82411 -81.409645,197.83552 -116.06909,161.6361 -145.27657,143.13164 -193.3628,126.90734 c -20.68675,-6.97971 -29.32471,-8.38785 -58.18619,-9.48536 -38.80244,-1.47552 -55.58343,1.26973 -79.90005,13.07112 -56.91057,27.61994 -98.07611,102.3223 -119.37137,216.62108 -14.2541,76.50647 -14.75589,84.08444 -14.4637,218.42105 0.24605,113.09837 3.00398,197.95708 7.97298,245.31489 l 1.71735,16.36753 12.45927,-28.80524 c 14.69726,-33.97944 26.89142,-54.80318 38.88446,-66.40223 7.70851,-7.45527 10.7243,-8.52821 26.44135,-9.40711 20.91779,-1.16973 27.73762,2.75553 39.4914,22.7299 6.51194,11.06637 7.33852,15.29855 8.19632,41.96708 2.21026,68.71702 -9.37984,109.39139 -46.10117,161.78781 -7.86134,11.21711 -13.29044,20.39474 -12.06464,20.39474 1.22577,0 13.0725,-5.2664 26.326,-11.70313 l 0,0 z m 174.6485,-402.89353 c -63.81102,-4.795 -67.27281,-6.05242 -65.27815,-23.71087 3.96144,-35.07005 53.32738,-90.75705 90.91267,-102.55358 22.05138,-6.92105 46.33857,-4.62163 61.5217,5.82466 23.060795,15.86629 36.780115,45.74142 36.780115,80.09226 0,20.58653 -4.44402,33.801 -13.49455,40.12658 -7.98493,5.58079 -38.306265,5.64145 -110.441785,0.22106 l 0,-1.1e-4 z"
       id="path3844-5"
       inkscape:connector-curvature="0" />
    <path
       style="fill:none;stroke:#000000;stroke-width:1.0010798px;stroke-linecap:butt;stroke-linejoin:miter;stroke-opacity:1"
       d="m -828.55669,110.68561 c -253.51861,16.07271 -196.80171,574.03969 -180.38891,754.28573 78.47512,-308.68481 219.35301,-31.70991 40.08642,124.28572 219.93599,-55.2944 469.30949,-410.12763 423.04795,-639.00223 -31.92346,-157.93828 -158.26691,-247.46099 -282.74546,-239.56922 z"
       id="path2985-2-6"
       inkscape:connector-curvature="0"
       sodipodi:nodetypes="sccss" />
    <path
       style="fill:none;stroke:#000000;stroke-width:1.0010798px;stroke-linecap:butt;stroke-linejoin:miter;stroke-opacity:1"
       d="m -667.93661,434.17794 c 39.79677,8.85253 65.87936,80.64309 42.94974,114.28571 -15.70871,23.04801 -33.17951,7.9516 -65.94457,3.50492 -31.05799,-4.215 -77.62315,4.32615 -97.26445,-0.64778 -47.9582,-12.14484 61.1538,-147.16984 120.25928,-117.14285 z"
       id="path2991-8-8"
       inkscape:connector-curvature="0"
       sodipodi:nodetypes="csssc" />
    <path
       style="fill:#800000"
       d="m -935.46168,976.29418 c 129.52639,-49.7884 273.21261,-203.13684 345.4254,-368.65369 32.67934,-74.90336 47.19854,-136.70307 46.98793,-200 -0.3167,-95.17655 -44.60462,-186.61396 -117.51354,-242.62 -58.73096,-45.11503 -143.6308,-64.05295 -203.4029,-45.37139 -110.79459,34.62847 -164.39661,196.89904 -159.02231,481.41245 1.7984,95.20802 11.4686,244.73847 16.1281,249.38784 0.8209,0.81913 1.4925,-0.27969 1.4925,-2.44182 0,-8.15087 16.79312,-54.30115 26.77612,-73.58547 18.2313,-35.2175 34.1687,-49.67634 54.7564,-49.67634 14.4646,0 27.1283,11.32642 34.74929,31.07981 8.1464,21.11511 9.9225,65.4415 3.8254,95.46729 -8.86269,43.6449 -30.64129,86.23245 -59.86589,117.0665 -7.4446,7.85463 -11.88,14.22324 -9.8565,14.1525 2.0235,-0.0708 10.8075,-2.86871 19.52,-6.21768 l 0,0 z m 261.07196,-418.70632 c -10.95332,-2.63908 -31.4174,-3.82518 -66.48817,-3.85363 -49.1032,-0.0397 -50.8366,-0.22368 -56.245,-5.96216 -10.2974,-10.92623 -2.669,-33.6401 21.774,-64.83334 21.9709,-28.03829 55.4246,-50.3691 81.19704,-54.20016 15.66433,-2.3285 37.97807,5.87821 51.43149,18.91585 22.36235,21.67121 33.80358,65.56697 23.8609,91.54536 -8.45879,22.10127 -21.79299,26.51671 -55.53026,18.38808 l 0,0 z"
       id="path3018-0-0"
       inkscape:connector-curvature="0" />
    <path
       style="fill:#cadfe5;fill-opacity:1"
       d="m -929.66228,972.15915 c 115.00609,-46.62105 247.23081,-182.07079 321.15916,-328.99234 14.7561,-29.32555 38.9899,-90.26471 47.09274,-118.42105 16.04773,-55.76387 20.76262,-126.283 11.5245,-172.36842 -13.2038,-65.86863 -44.34436,-123.46149 -89.87334,-166.2161 -26.00961,-24.42467 -38.04771,-32.69449 -68.44494,-47.01962 -66.55253,-31.36385 -138.28763,-33.01854 -185.07852,-4.26914 -71.9324,44.1969 -112.84932,149.64131 -125.24752,322.76801 -5.4443,76.02293 -2.513,223.95703 6.6737,336.79798 2.119,26.02837 3.8772,48.52837 3.9071,50 0.03,1.47166 3.6523,-7.98219 8.05002,-21.0085 15.5884,-46.17427 36.1837,-81.81019 54.0872,-93.58711 5.0846,-3.34463 12.3253,-5.06831 21.3388,-5.07976 11.7577,-0.0158 14.7745,1.11203 21.8344,8.15666 17.33379,17.29644 22.61929,39.81623 20.48379,87.27558 -2.4744,54.99086 -18.42069,95.60371 -55.25829,140.73463 -8.5652,10.49342 -14.6007,19.04602 -13.4124,19.00576 1.1883,-0.0403 10.7119,-3.53971 21.1636,-7.77658 z m 194.34329,-416.61047 c -41.6348,-2.26511 -59.5331,-4.2034 -62.6351,-6.78303 -15.4195,-12.82302 12.6566,-65.38868 51.0396,-95.55942 22.35476,-17.57181 38.7865,-24.33676 59.33844,-24.42966 15.44904,-0.0697 20.45925,1.08879 30.70991,7.10179 25.21932,14.79353 39.51286,40.6945 41.31948,74.87408 0.95851,18.13411 0.24679,23.37042 -4.50898,33.17332 -7.52155,15.50392 -13.1188,17.94423 -37.19186,16.21505 -10.87871,-0.78142 -46.01089,-2.84787 -78.07149,-4.59213 z"
       id="path3022-2-1"
       inkscape:connector-curvature="0" />
    <path
       style="fill:#000000;fill-opacity:0"
       d="m -925.19358,968.36084 c 104.28339,-44.15269 227.96174,-167.97924 302.46305,-302.82561 28.72218,-51.98674 55.36076,-119.40266 65.79958,-166.52305 8.26363,-37.30179 11.62381,-111.42195 6.4197,-141.60881 -4.26563,-24.74318 -19.31489,-68.92907 -31.09577,-91.29979 -27.96169,-53.09645 -74.59019,-99.65037 -122.9724,-122.77566 -38.15197,-18.23555 -60.20887,-24.00911 -97.98137,-25.64736 -34.5859,-1.50004 -57.7946,2.22439 -78.5149,12.59974 -73.54119,36.82463 -115.42289,131.14114 -134.26441,302.36019 -7.0127,63.72582 -1.949,332.02598 7.4206,393.18169 l 1.576,10.28692 8.62852,-22.27047 c 17.3241,-44.71393 35.2787,-74.68656 50.2827,-83.93953 5.6438,-3.48053 13.0622,-5.15334 22.8536,-5.15334 18.1775,0 25.4046,5.23858 35.48439,25.72089 7.2438,14.71961 7.4083,16.04369 7.1037,57.17384 -0.2516,33.95327 -1.3963,46.11919 -5.9124,62.83727 -7.75549,28.70934 -21.33549,55.65566 -41.47959,82.3066 -9.4108,12.45069 -16.7686,22.93311 -16.3506,23.29427 0.4181,0.36115 9.6609,-3.11185 20.5396,-7.71779 l 0,0 z m 200.77789,-410.96861 c -35.5331,-2.3076 -67.3222,-5.22626 -70.6424,-6.48587 -27.5642,-10.45731 22.2399,-90.32876 71.24198,-114.25152 19.22075,-9.38358 45.71205,-11.76832 60.54905,-5.45061 27.69486,11.79266 45.35121,40.45345 48.27094,78.35619 1.52982,19.85939 1.0602,23.92536 -3.958,34.26926 -9.61406,19.81718 -9.45864,19.79721 -105.46157,13.56255 z"
       id="path3826-1-5"
       inkscape:connector-curvature="0" />
    <path
       style="fill:#000077;fill-opacity:0"
       d="m -925.19358,968.36084 c 104.28339,-44.15269 227.96174,-167.97924 302.46305,-302.82561 28.72218,-51.98674 55.36076,-119.40266 65.79958,-166.52305 8.26363,-37.30179 11.62381,-111.42195 6.4197,-141.60881 -4.26563,-24.74318 -19.31489,-68.92907 -31.09577,-91.29979 -27.96169,-53.09645 -74.59019,-99.65037 -122.9724,-122.77566 -38.15197,-18.23555 -60.20887,-24.00911 -97.98137,-25.64736 -34.5859,-1.50004 -57.7946,2.22439 -78.5149,12.59974 -73.54119,36.82463 -115.42289,131.14114 -134.26441,302.36019 -7.0127,63.72582 -1.949,332.02598 7.4206,393.18169 l 1.576,10.28692 8.62852,-22.27047 c 17.3241,-44.71393 35.2787,-74.68656 50.2827,-83.93953 5.6438,-3.48053 13.0622,-5.15334 22.8536,-5.15334 18.1775,0 25.4046,5.23858 35.48439,25.72089 7.2438,14.71961 7.4083,16.04369 7.1037,57.17384 -0.2516,33.95327 -1.3963,46.11919 -5.9124,62.83727 -7.75549,28.70934 -21.33549,55.65566 -41.47959,82.3066 -9.4108,12.45069 -16.7686,22.93311 -16.3506,23.29427 0.4181,0.36115 9.6609,-3.11185 20.5396,-7.71779 l 0,0 z m 200.77789,-410.96861 c -35.5331,-2.3076 -67.3222,-5.22626 -70.6424,-6.48587 -27.5642,-10.45731 22.2399,-90.32876 71.24198,-114.25152 19.22075,-9.38358 45.71205,-11.76832 60.54905,-5.45061 27.69486,11.79266 45.35121,40.45345 48.27094,78.35619 1.52982,19.85939 1.0602,23.92536 -3.958,34.26926 -9.61406,19.81718 -9.45864,19.79721 -105.46157,13.56255 z"
       id="path3828-3-0"
       inkscape:connector-curvature="0" />
    <path
       style="fill:#000077;fill-opacity:0"
       d="m -925.19358,968.36084 c 104.28339,-44.15269 227.96174,-167.97924 302.46305,-302.82561 28.72218,-51.98674 55.36076,-119.40266 65.79958,-166.52305 8.26363,-37.30179 11.62381,-111.42195 6.4197,-141.60881 -4.26563,-24.74318 -19.31489,-68.92907 -31.09577,-91.29979 -27.96169,-53.09645 -74.59019,-99.65037 -122.9724,-122.77566 -38.15197,-18.23555 -60.20887,-24.00911 -97.98137,-25.64736 -34.5859,-1.50004 -57.7946,2.22439 -78.5149,12.59974 -73.54119,36.82463 -115.42289,131.14114 -134.26441,302.36019 -7.0127,63.72582 -1.949,332.02598 7.4206,393.18169 l 1.576,10.28692 8.62852,-22.27047 c 17.3241,-44.71393 35.2787,-74.68656 50.2827,-83.93953 5.6438,-3.48053 13.0622,-5.15334 22.8536,-5.15334 18.1775,0 25.4046,5.23858 35.48439,25.72089 7.2438,14.71961 7.4083,16.04369 7.1037,57.17384 -0.2516,33.95327 -1.3963,46.11919 -5.9124,62.83727 -7.75549,28.70934 -21.33549,55.65566 -41.47959,82.3066 -9.4108,12.45069 -16.7686,22.93311 -16.3506,23.29427 0.4181,0.36115 9.6609,-3.11185 20.5396,-7.71779 l 0,0 z m 200.77789,-410.96861 c -35.5331,-2.3076 -67.3222,-5.22626 -70.6424,-6.48587 -27.5642,-10.45731 22.2399,-90.32876 71.24198,-114.25152 19.22075,-9.38358 45.71205,-11.76832 60.54905,-5.45061 27.69486,11.79266 45.35121,40.45345 48.27094,78.35619 1.52982,19.85939 1.0602,23.92536 -3.958,34.26926 -9.61406,19.81718 -9.45864,19.79721 -105.46157,13.56255 z"
       id="path3830-5-5"
       inkscape:connector-curvature="0" />
    <path
       style="fill:#000077;fill-opacity:0"
       d="m -925.19358,968.36084 c 104.28339,-44.15269 227.96174,-167.97924 302.46305,-302.82561 28.72218,-51.98674 55.36076,-119.40266 65.79958,-166.52305 8.26363,-37.30179 11.62381,-111.42195 6.4197,-141.60881 -4.26563,-24.74318 -19.31489,-68.92907 -31.09577,-91.29979 -27.96169,-53.09645 -74.59019,-99.65037 -122.9724,-122.77566 -38.15197,-18.23555 -60.20887,-24.00911 -97.98137,-25.64736 -34.5859,-1.50004 -57.7946,2.22439 -78.5149,12.59974 -73.54119,36.82463 -115.42289,131.14114 -134.26441,302.36019 -7.0127,63.72582 -1.949,332.02598 7.4206,393.18169 l 1.576,10.28692 8.62852,-22.27047 c 17.3241,-44.71393 35.2787,-74.68656 50.2827,-83.93953 5.6438,-3.48053 13.0622,-5.15334 22.8536,-5.15334 18.1775,0 25.4046,5.23858 35.48439,25.72089 7.2438,14.71961 7.4083,16.04369 7.1037,57.17384 -0.2516,33.95327 -1.3963,46.11919 -5.9124,62.83727 -7.75549,28.70934 -21.33549,55.65566 -41.47959,82.3066 -9.4108,12.45069 -16.7686,22.93311 -16.3506,23.29427 0.4181,0.36115 9.6609,-3.11185 20.5396,-7.71779 l 0,0 z m 200.77789,-410.96861 c -35.5331,-2.3076 -67.3222,-5.22626 -70.6424,-6.48587 -27.5642,-10.45731 22.2399,-90.32876 71.24198,-114.25152 19.22075,-9.38358 45.71205,-11.76832 60.54905,-5.45061 27.69486,11.79266 45.35121,40.45345 48.27094,78.35619 1.52982,19.85939 1.0602,23.92536 -3.958,34.26926 -9.61406,19.81718 -9.45864,19.79721 -105.46157,13.56255 z"
       id="path3832-5-8"
       inkscape:connector-curvature="0" />
    <path
       style="fill:#0000c6;fill-opacity:0"
       d="m -925.19358,968.36084 c 104.28339,-44.15269 227.96174,-167.97924 302.46305,-302.82561 28.72218,-51.98674 55.36076,-119.40266 65.79958,-166.52305 8.26363,-37.30179 11.62381,-111.42195 6.4197,-141.60881 -4.26563,-24.74318 -19.31489,-68.92907 -31.09577,-91.29979 -27.96169,-53.09645 -74.59019,-99.65037 -122.9724,-122.77566 -38.15197,-18.23555 -60.20887,-24.00911 -97.98137,-25.64736 -34.5859,-1.50004 -57.7946,2.22439 -78.5149,12.59974 -73.54119,36.82463 -115.42289,131.14114 -134.26441,302.36019 -7.0127,63.72582 -1.949,332.02598 7.4206,393.18169 l 1.576,10.28692 8.62852,-22.27047 c 17.3241,-44.71393 35.2787,-74.68656 50.2827,-83.93953 5.6438,-3.48053 13.0622,-5.15334 22.8536,-5.15334 18.1775,0 25.4046,5.23858 35.48439,25.72089 7.2438,14.71961 7.4083,16.04369 7.1037,57.17384 -0.2516,33.95327 -1.3963,46.11919 -5.9124,62.83727 -7.75549,28.70934 -21.33549,55.65566 -41.47959,82.3066 -9.4108,12.45069 -16.7686,22.93311 -16.3506,23.29427 0.4181,0.36115 9.6609,-3.11185 20.5396,-7.71779 l 0,0 z m 200.77789,-410.96861 c -35.5331,-2.3076 -67.3222,-5.22626 -70.6424,-6.48587 -27.5642,-10.45731 22.2399,-90.32876 71.24198,-114.25152 19.22075,-9.38358 45.71205,-11.76832 60.54905,-5.45061 27.69486,11.79266 45.35121,40.45345 48.27094,78.35619 1.52982,19.85939 1.0602,23.92536 -3.958,34.26926 -9.61406,19.81718 -9.45864,19.79721 -105.46157,13.56255 z"
       id="path3834-4-7"
       inkscape:connector-curvature="0" />
    <path
       style="fill:#0000c6;fill-opacity:0"
       d="m -925.19358,968.36084 c 104.28339,-44.15269 227.96174,-167.97924 302.46305,-302.82561 28.72218,-51.98674 55.36076,-119.40266 65.79958,-166.52305 8.26363,-37.30179 11.62381,-111.42195 6.4197,-141.60881 -4.26563,-24.74318 -19.31489,-68.92907 -31.09577,-91.29979 -27.96169,-53.09645 -74.59019,-99.65037 -122.9724,-122.77566 -38.15197,-18.23555 -60.20887,-24.00911 -97.98137,-25.64736 -34.5859,-1.50004 -57.7946,2.22439 -78.5149,12.59974 -73.54119,36.82463 -115.42289,131.14114 -134.26441,302.36019 -7.0127,63.72582 -1.949,332.02598 7.4206,393.18169 l 1.576,10.28692 8.62852,-22.27047 c 17.3241,-44.71393 35.2787,-74.68656 50.2827,-83.93953 5.6438,-3.48053 13.0622,-5.15334 22.8536,-5.15334 18.1775,0 25.4046,5.23858 35.48439,25.72089 7.2438,14.71961 7.4083,16.04369 7.1037,57.17384 -0.2516,33.95327 -1.3963,46.11919 -5.9124,62.83727 -7.75549,28.70934 -21.33549,55.65566 -41.47959,82.3066 -9.4108,12.45069 -16.7686,22.93311 -16.3506,23.29427 0.4181,0.36115 9.6609,-3.11185 20.5396,-7.71779 l 0,0 z m 200.77789,-410.96861 c -35.5331,-2.3076 -67.3222,-5.22626 -70.6424,-6.48587 -27.5642,-10.45731 22.2399,-90.32876 71.24198,-114.25152 19.22075,-9.38358 45.71205,-11.76832 60.54905,-5.45061 27.69486,11.79266 45.35121,40.45345 48.27094,78.35619 1.52982,19.85939 1.0602,23.92536 -3.958,34.26926 -9.61406,19.81718 -9.45864,19.79721 -105.46157,13.56255 z"
       id="path3836-5-2"
       inkscape:connector-curvature="0" />
    <path
       style="fill:#0000ff;fill-opacity:0"
       d="m -925.19358,968.36084 c 104.28339,-44.15269 227.96174,-167.97924 302.46305,-302.82561 28.72218,-51.98674 55.36076,-119.40266 65.79958,-166.52305 8.26363,-37.30179 11.62381,-111.42195 6.4197,-141.60881 -4.26563,-24.74318 -19.31489,-68.92907 -31.09577,-91.29979 -27.96169,-53.09645 -74.59019,-99.65037 -122.9724,-122.77566 -38.15197,-18.23555 -60.20887,-24.00911 -97.98137,-25.64736 -34.5859,-1.50004 -57.7946,2.22439 -78.5149,12.59974 -73.54119,36.82463 -115.42289,131.14114 -134.26441,302.36019 -7.0127,63.72582 -1.949,332.02598 7.4206,393.18169 l 1.576,10.28692 8.62852,-22.27047 c 17.3241,-44.71393 35.2787,-74.68656 50.2827,-83.93953 5.6438,-3.48053 13.0622,-5.15334 22.8536,-5.15334 18.1775,0 25.4046,5.23858 35.48439,25.72089 7.2438,14.71961 7.4083,16.04369 7.1037,57.17384 -0.2516,33.95327 -1.3963,46.11919 -5.9124,62.83727 -7.75549,28.70934 -21.33549,55.65566 -41.47959,82.3066 -9.4108,12.45069 -16.7686,22.93311 -16.3506,23.29427 0.4181,0.36115 9.6609,-3.11185 20.5396,-7.71779 l 0,0 z m 200.77789,-410.96861 c -35.5331,-2.3076 -67.3222,-5.22626 -70.6424,-6.48587 -27.5642,-10.45731 22.2399,-90.32876 71.24198,-114.25152 19.22075,-9.38358 45.71205,-11.76832 60.54905,-5.45061 27.69486,11.79266 45.35121,40.45345 48.27094,78.35619 1.52982,19.85939 1.0602,23.92536 -3.958,34.26926 -9.61406,19.81718 -9.45864,19.79721 -105.46157,13.56255 z"
       id="path3838-2-4"
       inkscape:connector-curvature="0" />
    <path
       style="fill:#0000ff;fill-opacity:1"
       d="m -925.19358,968.36084 c 104.28339,-44.15269 227.96174,-167.97924 302.46305,-302.82561 28.72218,-51.98674 55.36076,-119.40266 65.79958,-166.52305 8.26363,-37.30179 11.62381,-111.42195 6.4197,-141.60881 -4.26563,-24.74318 -19.31489,-68.92907 -31.09577,-91.29979 -27.96169,-53.09645 -74.59019,-99.65037 -122.9724,-122.77566 -38.15197,-18.23555 -60.20887,-24.00911 -97.98137,-25.64736 -34.5859,-1.50004 -57.7946,2.22439 -78.5149,12.59974 -73.54119,36.82463 -115.42289,131.14114 -134.26441,302.36019 -7.0127,63.72582 -1.949,332.02598 7.4206,393.18169 l 1.576,10.28692 8.62852,-22.27047 c 17.3241,-44.71393 35.2787,-74.68656 50.2827,-83.93953 5.6438,-3.48053 13.0622,-5.15334 22.8536,-5.15334 18.1775,0 25.4046,5.23858 35.48439,25.72089 7.2438,14.71961 7.4083,16.04369 7.1037,57.17384 -0.2516,33.95327 -1.3963,46.11919 -5.9124,62.83727 -7.75549,28.70934 -21.33549,55.65566 -41.47959,82.3066 -9.4108,12.45069 -16.7686,22.93311 -16.3506,23.29427 0.4181,0.36115 9.6609,-3.11185 20.5396,-7.71779 l 0,0 z m 200.77789,-410.96861 c -35.5331,-2.3076 -67.3222,-5.22626 -70.6424,-6.48587 -27.5642,-10.45731 22.2399,-90.32876 71.24198,-114.25152 19.22075,-9.38358 45.71205,-11.76832 60.54905,-5.45061 27.69486,11.79266 45.35121,40.45345 48.27094,78.35619 1.52982,19.85939 1.0602,23.92536 -3.958,34.26926 -9.61406,19.81718 -9.45864,19.79721 -105.46157,13.56255 z"
       id="path3840-5-1"
       inkscape:connector-curvature="0" />
    <path
       style="fill:#e2e8ef;fill-opacity:1"
       d="m -912.58118,960.41105 c 48.45799,-23.53416 96.26469,-59.53882 148.36119,-111.73532 97.16189,-97.34845 164.68643,-207.97071 199.33527,-326.56155 9.71466,-33.24992 14.08037,-69.84298 14.13441,-118.47395 0.0395,-35.51186 -0.9291,-47.07898 -5.2885,-63.15789 -16.55458,-61.05881 -37.70381,-100.02665 -75.99123,-140.01524 -34.65944,-36.19942 -63.86692,-54.70388 -111.95315,-70.92818 -20.6868,-6.97971 -29.3247,-8.38785 -58.1862,-9.48536 -38.8024,-1.47552 -55.5834,1.26973 -79.9,13.07112 -56.91059,27.61994 -98.07619,102.3223 -119.37141,216.62108 -14.2541,76.50647 -14.7559,84.08444 -14.4637,218.42105 0.246,113.09837 3.004,197.95708 7.973,245.31489 l 1.7173,16.36753 12.45932,-28.80524 c 14.6972,-33.97944 26.8914,-54.80318 38.8844,-66.40223 7.7086,-7.45527 10.7243,-8.52821 26.4414,-9.40711 20.9178,-1.16973 27.7376,2.75553 39.49139,22.7299 6.5119,11.06637 7.3385,15.29855 8.1963,41.96708 2.2103,68.71702 -9.37979,109.39139 -46.10119,161.78781 -7.8613,11.21711 -13.2904,20.39474 -12.0646,20.39474 1.2258,0 13.0725,-5.2664 26.326,-11.70313 l 0,0 z m 174.64849,-402.89353 c -63.811,-4.795 -67.2728,-6.05242 -65.2781,-23.71087 3.9614,-35.07005 53.3273,-90.75705 90.91263,-102.55358 22.05138,-6.92105 46.33857,-4.62163 61.5217,5.82466 23.06079,15.86629 36.78011,45.74142 36.78011,80.09226 0,20.58653 -4.44402,33.801 -13.49455,40.12658 -7.98493,5.58079 -38.30626,5.64145 -110.44179,0.22106 l 0,-1.1e-4 z"
       id="path3844-5-2"
       inkscape:connector-curvature="0" />
    <path
       style="fill:none;stroke:#000000;stroke-width:1.02935052px;stroke-linecap:butt;stroke-linejoin:miter;stroke-opacity:1"
       d="M 987.23542,92.26455 C 1255.275,108.33726 1195.3095,666.30424 1177.9566,846.55028 1094.9866,537.86547 946.03942,814.84037 1135.5741,970.836 903.04069,915.5416 639.38357,560.70837 688.29484,331.83377 722.04685,173.89549 855.62695,84.37279 987.23542,92.26455 Z"
       id="path2985-2-3"
       inkscape:connector-curvature="0"
       sodipodi:nodetypes="sccss" />
    <path
       style="fill:none;stroke:#000000;stroke-width:1.02935052px;stroke-linecap:butt;stroke-linejoin:miter;stroke-opacity:1"
       d="m 817.41534,415.75688 c -42.07628,8.85253 -69.65284,80.64309 -45.40988,114.28571 16.60846,23.04801 35.07996,7.9516 69.72178,3.50492 32.83694,-4.215 82.0692,4.32615 102.83558,-0.64778 50.70522,-12.14484 -64.65664,-147.16984 -127.14748,-117.14285 z"
       id="path2991-8-3"
       inkscape:connector-curvature="0"
       sodipodi:nodetypes="csssc" />
    <path
       style="fill:#800000"
       d="M 1100.2636,957.87312 C 963.31822,908.08472 811.40197,754.73628 735.05296,589.21943 c -34.55111,-74.90336 -49.90194,-136.70307 -49.67928,-200 0.33484,-95.17655 47.15947,-186.61396 124.24455,-242.62 62.09489,-45.11503 151.85769,-64.05294 215.05327,-45.37139 117.1408,34.62847 173.813,196.89904 168.1309,481.41245 -1.9015,95.20802 -12.1256,244.73847 -17.0519,249.38784 -0.8679,0.81913 -1.578,-0.27969 -1.578,-2.44182 0,-8.15087 -17.755,-54.30115 -28.3098,-73.58547 -19.2755,-35.2175 -36.1259,-49.67634 -57.8927,-49.67634 -15.2932,0 -28.6822,11.32642 -36.7398,31.07981 -8.6129,21.11511 -10.4908,65.4415 -4.0444,95.46729 9.3703,43.6449 32.3963,86.23245 63.2948,117.0665 7.871,7.85463 12.5606,14.22324 10.4211,14.1525 -2.1394,-0.0708 -11.4265,-2.86871 -20.6381,-6.21768 l 0,0 z M 824.23806,539.1668 c 11.58068,-2.63908 33.21693,-3.82518 70.29651,-3.85363 51.91575,-0.0397 53.74845,-0.22368 59.46645,-5.96216 10.8874,-10.92623 2.822,-33.6401 -23.02112,-64.83334 -23.22935,-28.03829 -58.59911,-50.3691 -85.8478,-54.20016 -16.56152,-2.3285 -40.15342,5.87821 -54.3774,18.91585 -23.64317,21.67121 -35.7398,65.56697 -25.2276,91.54536 8.9433,22.10127 23.04126,26.51671 58.71096,18.38808 l 0,0 z"
       id="path3018-0-4"
       inkscape:connector-curvature="0" />
    <path
       style="fill:#cadfe5;fill-opacity:1"
       d="M 1094.1321,953.73809 C 972.53872,907.11704 832.74037,771.6673 754.57761,624.74575 738.97631,595.4202 713.35444,534.48104 704.78742,506.3247 c -16.96688,-55.76387 -21.95184,-126.283 -12.1846,-172.36842 13.96009,-65.86863 46.88436,-123.46149 95.02117,-166.2161 27.49938,-24.42467 40.227,-32.69449 72.36529,-47.01962 70.3646,-31.36384 146.20852,-33.01853 195.67952,-4.26914 76.0525,44.1969 119.313,149.64131 132.4214,322.76801 5.7561,76.02293 2.6569,223.95703 -7.056,336.79798 -2.2404,26.02837 -4.0992,48.52837 -4.1308,50 -0.032,1.47166 -3.8616,-7.98219 -8.5112,-21.0085 -16.4813,-46.17427 -38.2562,-81.81019 -57.1852,-93.58711 -5.3758,-3.34463 -13.0312,-5.06831 -22.561,-5.07976 -12.4312,-0.0158 -15.6208,1.11203 -23.085,8.15666 -18.3267,17.29644 -23.9149,39.81623 -21.6571,87.27558 2.6161,54.99086 19.4757,95.60371 58.4234,140.73463 9.0557,10.49342 15.437,19.04602 14.1806,19.00576 -1.2564,-0.0403 -11.3255,-3.53971 -22.3758,-7.77658 z M 888.65727,537.12762 c 44.01945,-2.26511 62.94295,-4.2034 66.22265,-6.78303 16.3027,-12.82302 -13.3815,-65.38868 -53.96298,-95.55942 -23.63524,-17.57181 -41.00812,-24.33676 -62.73729,-24.42966 -16.33389,-0.0697 -21.63107,1.08879 -32.46891,7.10179 -26.66381,14.79353 -41.77612,40.6945 -43.6862,74.87408 -1.0134,18.13411 -0.26093,23.37042 4.76727,33.17332 7.95242,15.50392 13.87022,17.94423 39.32218,16.21505 11.50181,-0.78142 48.64631,-2.84787 82.54328,-4.59213 z"
       id="path3022-2-5"
       inkscape:connector-curvature="0" />
    <path
       style="fill:#000000;fill-opacity:0"
       d="M 1089.4075,949.93978 C 979.15082,905.78709 848.38851,781.96054 769.61992,647.11417 739.25257,595.12743 711.08817,527.71151 700.05145,480.59112 c -8.73692,-37.30179 -12.28959,-111.42195 -6.78741,-141.60881 4.50993,-24.74318 20.42122,-68.92907 32.87691,-91.29979 29.56329,-53.09645 78.86258,-99.65037 130.01602,-122.77566 40.33716,-18.23555 63.65754,-24.00911 103.59355,-25.64736 36.56692,-1.50004 61.10488,2.22439 83.01198,12.59974 77.7536,36.82463 122.0342,131.14114 141.9549,302.36019 7.4143,63.72582 2.0605,332.02598 -7.8457,393.18169 l -1.6662,10.28692 -9.1228,-22.27047 c -18.3164,-44.71393 -37.2994,-74.68656 -53.1628,-83.93953 -5.967,-3.48053 -13.8104,-5.15334 -24.1626,-5.15334 -19.2187,0 -26.8597,5.23858 -37.5169,25.72089 -7.6587,14.71961 -7.8326,16.04369 -7.5105,57.17384 0.266,33.95327 1.4762,46.11919 6.251,62.83727 8.1998,28.70934 22.5575,55.65566 43.8554,82.3066 9.9499,12.45069 17.7291,22.93311 17.2872,23.29427 -0.442,0.36115 -10.2142,-3.11185 -21.716,-7.71779 l 0,0 z M 877.12945,538.97117 c 37.56826,-2.3076 71.17817,-5.22626 74.68857,-6.48587 29.143,-10.45731 -23.51377,-90.32876 -75.32251,-114.25152 -20.32173,-9.38358 -48.3304,-11.76832 -64.01724,-5.45061 -29.2811,11.79266 -47.94882,40.45345 -51.03576,78.35619 -1.61742,19.85939 -1.12092,23.92536 4.18471,34.26926 10.16467,19.81718 10.00037,19.79721 111.50223,13.56255 z"
       id="path3826-1-52"
       inkscape:connector-curvature="0" />
    <path
       style="fill:#000077;fill-opacity:0"
       d="M 1089.4075,949.93978 C 979.15082,905.78709 848.38851,781.96054 769.61992,647.11417 739.25257,595.12743 711.08817,527.71151 700.05145,480.59112 c -8.73692,-37.30179 -12.28959,-111.42195 -6.78741,-141.60881 4.50993,-24.74318 20.42122,-68.92907 32.87691,-91.29979 29.56329,-53.09645 78.86258,-99.65037 130.01602,-122.77566 40.33716,-18.23555 63.65754,-24.00911 103.59355,-25.64736 36.56692,-1.50004 61.10488,2.22439 83.01198,12.59974 77.7536,36.82463 122.0342,131.14114 141.9549,302.36019 7.4143,63.72582 2.0605,332.02598 -7.8457,393.18169 l -1.6662,10.28692 -9.1228,-22.27047 c -18.3164,-44.71393 -37.2994,-74.68656 -53.1628,-83.93953 -5.967,-3.48053 -13.8104,-5.15334 -24.1626,-5.15334 -19.2187,0 -26.8597,5.23858 -37.5169,25.72089 -7.6587,14.71961 -7.8326,16.04369 -7.5105,57.17384 0.266,33.95327 1.4762,46.11919 6.251,62.83727 8.1998,28.70934 22.5575,55.65566 43.8554,82.3066 9.9499,12.45069 17.7291,22.93311 17.2872,23.29427 -0.442,0.36115 -10.2142,-3.11185 -21.716,-7.71779 l 0,0 z M 877.12945,538.97117 c 37.56826,-2.3076 71.17817,-5.22626 74.68857,-6.48587 29.143,-10.45731 -23.51377,-90.32876 -75.32251,-114.25152 -20.32173,-9.38358 -48.3304,-11.76832 -64.01724,-5.45061 -29.2811,11.79266 -47.94882,40.45345 -51.03576,78.35619 -1.61742,19.85939 -1.12092,23.92536 4.18471,34.26926 10.16467,19.81718 10.00037,19.79721 111.50223,13.56255 z"
       id="path3828-3-3"
       inkscape:connector-curvature="0" />
    <path
       style="fill:#000077;fill-opacity:0"
       d="M 1089.4075,949.93978 C 979.15082,905.78709 848.38851,781.96054 769.61992,647.11417 739.25257,595.12743 711.08817,527.71151 700.05145,480.59112 c -8.73692,-37.30179 -12.28959,-111.42195 -6.78741,-141.60881 4.50993,-24.74318 20.42122,-68.92907 32.87691,-91.29979 29.56329,-53.09645 78.86258,-99.65037 130.01602,-122.77566 40.33716,-18.23555 63.65754,-24.00911 103.59355,-25.64736 36.56692,-1.50004 61.10488,2.22439 83.01198,12.59974 77.7536,36.82463 122.0342,131.14114 141.9549,302.36019 7.4143,63.72582 2.0605,332.02598 -7.8457,393.18169 l -1.6662,10.28692 -9.1228,-22.27047 c -18.3164,-44.71393 -37.2994,-74.68656 -53.1628,-83.93953 -5.967,-3.48053 -13.8104,-5.15334 -24.1626,-5.15334 -19.2187,0 -26.8597,5.23858 -37.5169,25.72089 -7.6587,14.71961 -7.8326,16.04369 -7.5105,57.17384 0.266,33.95327 1.4762,46.11919 6.251,62.83727 8.1998,28.70934 22.5575,55.65566 43.8554,82.3066 9.9499,12.45069 17.7291,22.93311 17.2872,23.29427 -0.442,0.36115 -10.2142,-3.11185 -21.716,-7.71779 l 0,0 z M 877.12945,538.97117 c 37.56826,-2.3076 71.17817,-5.22626 74.68857,-6.48587 29.143,-10.45731 -23.51377,-90.32876 -75.32251,-114.25152 -20.32173,-9.38358 -48.3304,-11.76832 -64.01724,-5.45061 -29.2811,11.79266 -47.94882,40.45345 -51.03576,78.35619 -1.61742,19.85939 -1.12092,23.92536 4.18471,34.26926 10.16467,19.81718 10.00037,19.79721 111.50223,13.56255 z"
       id="path3830-5-2"
       inkscape:connector-curvature="0" />
    <path
       style="fill:#000077;fill-opacity:0"
       d="M 1089.4075,949.93978 C 979.15082,905.78709 848.38851,781.96054 769.61992,647.11417 739.25257,595.12743 711.08817,527.71151 700.05145,480.59112 c -8.73692,-37.30179 -12.28959,-111.42195 -6.78741,-141.60881 4.50993,-24.74318 20.42122,-68.92907 32.87691,-91.29979 29.56329,-53.09645 78.86258,-99.65037 130.01602,-122.77566 40.33716,-18.23555 63.65754,-24.00911 103.59355,-25.64736 36.56692,-1.50004 61.10488,2.22439 83.01198,12.59974 77.7536,36.82463 122.0342,131.14114 141.9549,302.36019 7.4143,63.72582 2.0605,332.02598 -7.8457,393.18169 l -1.6662,10.28692 -9.1228,-22.27047 c -18.3164,-44.71393 -37.2994,-74.68656 -53.1628,-83.93953 -5.967,-3.48053 -13.8104,-5.15334 -24.1626,-5.15334 -19.2187,0 -26.8597,5.23858 -37.5169,25.72089 -7.6587,14.71961 -7.8326,16.04369 -7.5105,57.17384 0.266,33.95327 1.4762,46.11919 6.251,62.83727 8.1998,28.70934 22.5575,55.65566 43.8554,82.3066 9.9499,12.45069 17.7291,22.93311 17.2872,23.29427 -0.442,0.36115 -10.2142,-3.11185 -21.716,-7.71779 l 0,0 z M 877.12945,538.97117 c 37.56826,-2.3076 71.17817,-5.22626 74.68857,-6.48587 29.143,-10.45731 -23.51377,-90.32876 -75.32251,-114.25152 -20.32173,-9.38358 -48.3304,-11.76832 -64.01724,-5.45061 -29.2811,11.79266 -47.94882,40.45345 -51.03576,78.35619 -1.61742,19.85939 -1.12092,23.92536 4.18471,34.26926 10.16467,19.81718 10.00037,19.79721 111.50223,13.56255 z"
       id="path3832-5-0"
       inkscape:connector-curvature="0" />
    <path
       style="fill:#0000c6;fill-opacity:0"
       d="M 1089.4075,949.93978 C 979.15082,905.78709 848.38851,781.96054 769.61992,647.11417 739.25257,595.12743 711.08817,527.71151 700.05145,480.59112 c -8.73692,-37.30179 -12.28959,-111.42195 -6.78741,-141.60881 4.50993,-24.74318 20.42122,-68.92907 32.87691,-91.29979 29.56329,-53.09645 78.86258,-99.65037 130.01602,-122.77566 40.33716,-18.23555 63.65754,-24.00911 103.59355,-25.64736 36.56692,-1.50004 61.10488,2.22439 83.01198,12.59974 77.7536,36.82463 122.0342,131.14114 141.9549,302.36019 7.4143,63.72582 2.0605,332.02598 -7.8457,393.18169 l -1.6662,10.28692 -9.1228,-22.27047 c -18.3164,-44.71393 -37.2994,-74.68656 -53.1628,-83.93953 -5.967,-3.48053 -13.8104,-5.15334 -24.1626,-5.15334 -19.2187,0 -26.8597,5.23858 -37.5169,25.72089 -7.6587,14.71961 -7.8326,16.04369 -7.5105,57.17384 0.266,33.95327 1.4762,46.11919 6.251,62.83727 8.1998,28.70934 22.5575,55.65566 43.8554,82.3066 9.9499,12.45069 17.7291,22.93311 17.2872,23.29427 -0.442,0.36115 -10.2142,-3.11185 -21.716,-7.71779 l 0,0 z M 877.12945,538.97117 c 37.56826,-2.3076 71.17817,-5.22626 74.68857,-6.48587 29.143,-10.45731 -23.51377,-90.32876 -75.32251,-114.25152 -20.32173,-9.38358 -48.3304,-11.76832 -64.01724,-5.45061 -29.2811,11.79266 -47.94882,40.45345 -51.03576,78.35619 -1.61742,19.85939 -1.12092,23.92536 4.18471,34.26926 10.16467,19.81718 10.00037,19.79721 111.50223,13.56255 z"
       id="path3834-4-2"
       inkscape:connector-curvature="0" />
    <path
       style="fill:#0000c6;fill-opacity:0"
       d="M 1089.4075,949.93978 C 979.15082,905.78709 848.38851,781.96054 769.61992,647.11417 739.25257,595.12743 711.08817,527.71151 700.05145,480.59112 c -8.73692,-37.30179 -12.28959,-111.42195 -6.78741,-141.60881 4.50993,-24.74318 20.42122,-68.92907 32.87691,-91.29979 29.56329,-53.09645 78.86258,-99.65037 130.01602,-122.77566 40.33716,-18.23555 63.65754,-24.00911 103.59355,-25.64736 36.56692,-1.50004 61.10488,2.22439 83.01198,12.59974 77.7536,36.82463 122.0342,131.14114 141.9549,302.36019 7.4143,63.72582 2.0605,332.02598 -7.8457,393.18169 l -1.6662,10.28692 -9.1228,-22.27047 c -18.3164,-44.71393 -37.2994,-74.68656 -53.1628,-83.93953 -5.967,-3.48053 -13.8104,-5.15334 -24.1626,-5.15334 -19.2187,0 -26.8597,5.23858 -37.5169,25.72089 -7.6587,14.71961 -7.8326,16.04369 -7.5105,57.17384 0.266,33.95327 1.4762,46.11919 6.251,62.83727 8.1998,28.70934 22.5575,55.65566 43.8554,82.3066 9.9499,12.45069 17.7291,22.93311 17.2872,23.29427 -0.442,0.36115 -10.2142,-3.11185 -21.716,-7.71779 l 0,0 z M 877.12945,538.97117 c 37.56826,-2.3076 71.17817,-5.22626 74.68857,-6.48587 29.143,-10.45731 -23.51377,-90.32876 -75.32251,-114.25152 -20.32173,-9.38358 -48.3304,-11.76832 -64.01724,-5.45061 -29.2811,11.79266 -47.94882,40.45345 -51.03576,78.35619 -1.61742,19.85939 -1.12092,23.92536 4.18471,34.26926 10.16467,19.81718 10.00037,19.79721 111.50223,13.56255 z"
       id="path3836-5-8"
       inkscape:connector-curvature="0" />
    <path
       style="fill:#0000ff;fill-opacity:0"
       d="M 1089.4075,949.93978 C 979.15082,905.78709 848.38851,781.96054 769.61992,647.11417 739.25257,595.12743 711.08817,527.71151 700.05145,480.59112 c -8.73692,-37.30179 -12.28959,-111.42195 -6.78741,-141.60881 4.50993,-24.74318 20.42122,-68.92907 32.87691,-91.29979 29.56329,-53.09645 78.86258,-99.65037 130.01602,-122.77566 40.33716,-18.23555 63.65754,-24.00911 103.59355,-25.64736 36.56692,-1.50004 61.10488,2.22439 83.01198,12.59974 77.7536,36.82463 122.0342,131.14114 141.9549,302.36019 7.4143,63.72582 2.0605,332.02598 -7.8457,393.18169 l -1.6662,10.28692 -9.1228,-22.27047 c -18.3164,-44.71393 -37.2994,-74.68656 -53.1628,-83.93953 -5.967,-3.48053 -13.8104,-5.15334 -24.1626,-5.15334 -19.2187,0 -26.8597,5.23858 -37.5169,25.72089 -7.6587,14.71961 -7.8326,16.04369 -7.5105,57.17384 0.266,33.95327 1.4762,46.11919 6.251,62.83727 8.1998,28.70934 22.5575,55.65566 43.8554,82.3066 9.9499,12.45069 17.7291,22.93311 17.2872,23.29427 -0.442,0.36115 -10.2142,-3.11185 -21.716,-7.71779 l 0,0 z M 877.12945,538.97117 c 37.56826,-2.3076 71.17817,-5.22626 74.68857,-6.48587 29.143,-10.45731 -23.51377,-90.32876 -75.32251,-114.25152 -20.32173,-9.38358 -48.3304,-11.76832 -64.01724,-5.45061 -29.2811,11.79266 -47.94882,40.45345 -51.03576,78.35619 -1.61742,19.85939 -1.12092,23.92536 4.18471,34.26926 10.16467,19.81718 10.00037,19.79721 111.50223,13.56255 z"
       id="path3838-2-8"
       inkscape:connector-curvature="0" />
    <path
       style="fill:#0000ff;fill-opacity:1"
       d="M 1089.4075,949.93978 C 979.15082,905.78709 848.38851,781.96054 769.61992,647.11417 739.25257,595.12743 711.08817,527.71151 700.05145,480.59112 c -8.73692,-37.30179 -12.28959,-111.42195 -6.78741,-141.60881 4.50993,-24.74318 20.42122,-68.92907 32.87691,-91.29979 29.56329,-53.09645 78.86258,-99.65037 130.01602,-122.77566 40.33716,-18.23555 63.65754,-24.00911 103.59355,-25.64736 36.56692,-1.50004 61.10488,2.22439 83.01198,12.59974 77.7536,36.82463 122.0342,131.14114 141.9549,302.36019 7.4143,63.72582 2.0605,332.02598 -7.8457,393.18169 l -1.6662,10.28692 -9.1228,-22.27047 c -18.3164,-44.71393 -37.2994,-74.68656 -53.1628,-83.93953 -5.967,-3.48053 -13.8104,-5.15334 -24.1626,-5.15334 -19.2187,0 -26.8597,5.23858 -37.5169,25.72089 -7.6587,14.71961 -7.8326,16.04369 -7.5105,57.17384 0.266,33.95327 1.4762,46.11919 6.251,62.83727 8.1998,28.70934 22.5575,55.65566 43.8554,82.3066 9.9499,12.45069 17.7291,22.93311 17.2872,23.29427 -0.442,0.36115 -10.2142,-3.11185 -21.716,-7.71779 l 0,0 z M 877.12945,538.97117 c 37.56826,-2.3076 71.17817,-5.22626 74.68857,-6.48587 29.143,-10.45731 -23.51377,-90.32876 -75.32251,-114.25152 -20.32173,-9.38358 -48.3304,-11.76832 -64.01724,-5.45061 -29.2811,11.79266 -47.94882,40.45345 -51.03576,78.35619 -1.61742,19.85939 -1.12092,23.92536 4.18471,34.26926 10.16467,19.81718 10.00037,19.79721 111.50223,13.56255 z"
       id="path3840-5-7"
       inkscape:connector-curvature="0" />
    <path
       style="fill:#e2e8ef;fill-opacity:1"
       d="M 1076.0726,941.98999 C 1024.839,918.45583 974.29412,882.45117 919.21366,830.25467 816.48652,732.90622 745.09425,622.28396 708.46083,503.69312 698.18969,470.4432 693.57393,433.85014 693.51684,385.21917 c -0.0423,-35.51186 0.98232,-47.07898 5.59141,-63.15789 17.50282,-61.05881 39.8634,-100.02665 80.34383,-140.01524 36.64462,-36.19942 67.52507,-54.70388 118.36566,-70.92818 21.87159,-6.97971 31.00436,-8.38785 61.51888,-9.48536 41.02498,-1.47552 58.76718,1.26973 84.47658,13.07112 60.1703,27.61994 103.6937,102.3223 126.2087,216.62108 15.0706,76.50647 15.6011,84.08444 15.2922,218.42105 -0.2602,113.09837 -3.1761,197.95708 -8.4297,245.31489 l -1.8157,16.36753 -13.1729,-28.80524 c -15.5391,-33.97944 -28.4317,-54.80318 -41.1117,-66.40223 -8.15,-7.45527 -11.3385,-8.52821 -27.9558,-9.40711 -22.116,-1.16973 -29.3264,2.75553 -41.7534,22.7299 -6.885,11.06637 -7.7589,15.29855 -8.6658,41.96708 -2.3369,68.71702 9.9171,109.39139 48.7417,161.78781 8.3117,11.21711 14.0517,20.39474 12.7557,20.39474 -1.296,0 -13.8213,-5.2664 -27.8339,-11.70313 l 0,0 z M 891.42057,539.09646 c 67.46605,-4.795 71.12615,-6.05242 69.01725,-23.71087 -4.1883,-35.07005 -56.38193,-90.75705 -96.12004,-102.55358 -23.31446,-6.92105 -48.99268,-4.62163 -65.04554,5.82466 -24.38168,15.86629 -38.88679,45.74142 -38.88679,80.09226 0,20.58653 4.69854,33.801 14.26754,40.12658 8.44226,5.58079 40.5003,5.64145 116.76758,0.22106 l 0,-1.1e-4 z"
       id="path3844-5-0"
       inkscape:connector-curvature="0" />
    <path
       style="fill:#94daaf;fill-opacity:1"
       d="m -372.05089,945.46035 c 16.35385,-24.23537 29.87132,-52.29845 35.22136,-73.12164 10.77342,-41.93186 10.45572,-110.4385 -0.59508,-128.31908 -12.26544,-19.84586 -22.38482,-24.80131 -44.94645,-22.01013 -21.2362,2.62721 -32.28816,14.93792 -55.04244,61.31142 l -17.69929,36.07135 -1.7962,-18.42106 c -2.70596,-27.75108 -7.33628,-194.29034 -7.3532,-264.47368 -0.0185,-76.72147 3.30495,-125.02363 11.79538,-171.43084 19.23999,-105.16234 43.86785,-163.82163 86.61327,-206.29778 32.63284,-32.42727 62.98928,-42.65783 117.3197,-39.53845 75.45832,4.33244 137.62503,40.70467 194.049615,113.5337 20.374128,26.29757 41.105338,75.35066 49.6623907,117.50863 5.34878904,26.35178 3.782974,98.08656 -2.901184,132.91145 -18.5020787,96.39705 -77.1153967,211.40142 -155.9283717,305.94487 -39.81092,47.75687 -106.20614,108.94321 -150.67192,138.85129 -18.92155,12.72679 -64.5079,37.4645 -69.03915,37.4645 -1.19563,0 3.89458,-8.99305 11.31157,-19.98455 z M -80.366465,556.85348 c 13.49316,-6.9344 17.37313,-16.17503 17.19195,-40.94482 -0.29466,-40.28447 -15.49827,-71.52166 -41.563135,-85.39518 -8.62929,-4.59311 -15.29198,-5.80137 -31.96643,-5.79703 -29.60673,0.008 -45.48076,8.01718 -75.00885,37.84692 -25.09714,25.35355 -38.82334,48.10724 -41.21799,68.32629 -1.32462,11.18429 -0.81007,13.3474 3.75625,15.79124 17.50851,9.37026 154.326385,17.61508 168.808205,10.17258 z"
       id="path3316"
       inkscape:connector-curvature="0" />
    <path
       style="fill:#ccc0d0;fill-opacity:1"
       d="m -933.79698,966.70848 c 0,-0.60471 5.3901,-9.43166 11.9779,-19.61545 16.5312,-25.55466 29.0188,-52.78642 35.63092,-77.70076 4.50097,-16.95956 5.6409,-29.23877 5.86319,-63.1579 0.30951,-47.22855 -2.51969,-58.13937 -19.10641,-73.68421 -7.7539,-7.26679 -9.8806,-7.87855 -26.7374,-7.69129 -14.0617,0.15632 -19.9753,1.4414 -25.4709,5.5355 -11.4875,8.55792 -23.757,27.61792 -38.7438,60.18613 -7.6935,16.71906 -14.57202,29.44921 -15.28552,28.28924 -5.827,-9.47316 -11.587,-299.55958 -7.3114,-368.21397 4.0724,-65.39024 19.71542,-144.47462 38.45672,-194.4214 16.7263,-44.57653 46.0781,-89.11533 70.4419,-106.88953 33.31482,-24.30418 64.55154,-31.6216 114.17453,-26.74615 60.43105,5.93733 116.92305,35.34332 160.00245,83.28666 34.18352,38.04308 48.94455,63.65422 66.17823,114.82271 l 10.19274,30.26315 -0.22632,57.89474 c -0.25894,66.24947 -3.7156,88.34534 -22.21371,141.9919 -37.47329,108.6766 -100.29644,206.70936 -189.86848,296.28142 -45.45511,45.45521 -90.29696,80.71876 -131.11254,103.10671 -18.0949,9.92531 -36.8421,18.30231 -36.8421,16.4625 l 0,0 z m 302.31883,-406.81206 c 13.37266,-4.66171 17.4615,-15.25423 17.1589,-44.45152 -0.3055,-29.47632 -6.33942,-48.18987 -21.09734,-65.43116 -14.80808,-17.29992 -27.31569,-22.69218 -52.32777,-22.5595 -29.64094,0.15711 -45.60702,8.20187 -75.04725,37.81316 -25.11672,25.26266 -38.78199,47.9056 -41.19194,68.25384 -1.33306,11.25568 -0.82499,13.33942 3.86448,15.84913 16.72918,8.95319 149.3985,17.234 168.64092,10.52605 z"
       id="path4086"
       inkscape:connector-curvature="0" />
    <path
       style="fill:#f7f7a9;fill-opacity:1"
       d="m 1093.5714,947.66963 c -2.1711,-0.69587 -15.7895,-7.21597 -30.2632,-14.4891 C 966.53802,884.55287 858.28355,780.2064 785.28477,665.19379 745.20222,602.04205 708.40009,512.78942 700.09115,458.58195 c -2.42399,-15.81405 -4.02179,-44.70903 -4.07074,-73.61587 -0.0783,-46.24028 0.15407,-48.32118 8.22767,-73.68422 17.23523,-54.14407 37.3328,-87.73583 75.3229,-125.89728 35.83804,-35.99968 64.14636,-53.78576 111.36886,-69.97289 32.26586,-11.06023 76.27378,-15.470841 110.05846,-11.03041 77.213,10.14832 132.703,80.05637 162.3111,204.48467 17.6937,74.358 18.027,78.21029 19.1229,221.05263 0.9048,117.93226 -1.4657,214.2171 -6.4014,260.0105 l -1.6462,15.27368 -17.0535,-34.75031 c -21.9281,-44.6835 -36.9766,-61.41082 -57.7328,-64.17369 -17.9044,-2.38326 -29.2971,0.21606 -38.5048,8.78564 -14.4626,13.45992 -18.058,24.68565 -19.4695,60.78755 -2.3323,59.65618 8.4499,98.72608 40.4576,146.59939 9.3006,13.91082 16.5787,25.5604 16.1736,25.88795 -0.4051,0.32758 -2.5128,0.0263 -4.6839,-0.66966 l 0,0 z M 909.3609,538.93605 c 18.0921,-1.6576 37.03942,-4.39439 42.10522,-6.08176 8.9992,-2.99755 9.2027,-3.37703 8.8694,-16.53745 -0.4981,-19.66647 -11.1601,-37.5615 -39.03479,-65.51587 -17.01609,-17.06471 -28.65467,-26.25105 -40.88998,-32.27447 -47.34126,-23.30603 -95.6878,-6.96639 -113.42876,38.3354 -8.44847,21.57326 -8.88849,62.60042 -0.78846,73.51655 10.18471,13.7256 14.00368,14.49695 64.22,12.97092 25.32895,-0.76971 60.85526,-2.75571 78.94737,-4.41332 l 0,0 z"
       id="path4088"
       inkscape:connector-curvature="0" />
  </g>
</svg>
