<?xml version="1.0" encoding="UTF-8" standalone="no"?>
<!-- Created with Inkscape (http://www.inkscape.org/) -->

<svg
   xmlns:dc="http://purl.org/dc/elements/1.1/"
   xmlns:cc="http://creativecommons.org/ns#"
   xmlns:rdf="http://www.w3.org/1999/02/22-rdf-syntax-ns#"
   xmlns:svg="http://www.w3.org/2000/svg"
   xmlns="http://www.w3.org/2000/svg"
   xmlns:sodipodi="http://sodipodi.sourceforge.net/DTD/sodipodi-0.dtd"
   xmlns:inkscape="http://www.inkscape.org/namespaces/inkscape"
   width="744.09448819"
   height="1052.3622047"
   id="svg2"
   version="1.1"
   inkscape:version="0.48.3.1 r9886"
   sodipodi:docname="ghost.svg"
   inkscape:export-filename="/home/rahul/ghost.png"
   inkscape:export-xdpi="90"
   inkscape:export-ydpi="90">
  <defs
     id="defs4" />
  <sodipodi:namedview
     id="base"
     pagecolor="#ffffff"
     bordercolor="#666666"
     borderopacity="1.0"
     inkscape:pageopacity="0.0"
     inkscape:pageshadow="2"
     inkscape:zoom="0.38"
     inkscape:cx="-79.586466"
     inkscape:cy="514.28571"
     inkscape:document-units="px"
     inkscape:current-layer="layer1"
     showgrid="false"
     inkscape:window-width="1301"
     inkscape:window-height="744"
     inkscape:window-x="65"
     inkscape:window-y="24"
     inkscape:window-maximized="1" />
  <metadata
     id="metadata7">
    <rdf:RDF>
      <cc:Work
         rdf:about="">
        <dc:format>image/svg+xml</dc:format>
        <dc:type
           rdf:resource="http://purl.org/dc/dcmitype/StillImage" />
        <dc:title></dc:title>
      </cc:Work>
    </rdf:RDF>
  </metadata>
  <g
     inkscape:label="Layer 1"
     inkscape:groupmode="layer"
     id="layer1">
    <path
       style="fill:none;stroke:#000000;stroke-width:1px;stroke-linecap:butt;stroke-linejoin:miter;stroke-opacity:1"
       d="m 417.14286,106.6479 c 252.97197,16.07271 196.37742,574.03969 180,754.28573 C 518.83697,552.24882 378.26272,829.22372 557.14285,985.21935 337.68109,929.92495 88.8452,575.09172 135.007,346.21712 166.86163,188.27884 292.93268,98.75614 417.14286,106.6479 z"
       id="path2985"
       inkscape:connector-curvature="0"
       sodipodi:nodetypes="sccss" />
    <path
       style="fill:none;stroke:#000000;stroke-width:1px;stroke-linecap:butt;stroke-linejoin:miter;stroke-opacity:1"
       d="m 256.86908,430.14023 c -39.71097,8.85253 -65.73733,80.64309 -42.85714,114.28571 15.67484,23.04801 33.10797,7.9516 65.80239,3.50492 30.99103,-4.215 77.45577,4.32615 97.05475,-0.64778 47.85483,-12.14484 -61.022,-147.16984 -120,-117.14285 z"
       id="path2991"
       inkscape:connector-curvature="0"
       sodipodi:nodetypes="csssc" />
    <path
       style="fill:none;stroke:#000000;stroke-width:1px;stroke-linecap:butt;stroke-linejoin:miter;stroke-opacity:1"
       d="m 37.142857,718.07647 c 1.72925,35.4331 60.00973,52.87593 87.333753,36.97678 31.44503,-18.29706 12.66625,-108.40535 12.66625,-108.40535 0,0 -26.74943,28.99417 -39.428578,21.14286 -21.386162,-13.24295 2.285714,-75.42857 2.285714,-75.42857 0,0 -64.690077,8.13606 -62.857139,125.71428 z"
       id="path2993"
       inkscape:connector-curvature="0"
       sodipodi:nodetypes="cacacc" />
    <path
       style="fill:#800000"
       d="M 523.81732,972.25647 C 394.57019,922.46807 251.1938,769.11963 179.1367,603.60278 c -32.60888,-74.90336 -47.09678,-136.70307 -46.88662,-200 0.31602,-95.17655 44.50845,-186.61396 117.26018,-242.62 58.60433,-45.11503 143.32114,-64.052941 202.96433,-45.37139 110.55576,34.62847 164.04215,196.89904 158.67947,481.41245 -1.79453,95.20802 -11.44389,244.73847 -16.09329,249.38784 -0.81913,0.81913 -1.48934,-0.27969 -1.48934,-2.44182 0,-8.15087 -16.75684,-54.30115 -26.71837,-73.58547 -18.19195,-35.2175 -34.09505,-49.67634 -54.63832,-49.67634 -14.43347,0 -27.06986,11.32642 -34.67442,31.07981 -8.12879,21.11511 -9.9011,65.4415 -3.8171,95.46729 8.84358,43.6449 30.57518,86.23245 59.73676,117.0665 7.42855,7.85463 11.85445,14.22324 9.83529,14.1525 -2.01916,-0.0708 -10.78424,-2.86871 -19.47795,-6.21768 l 0,0 z M 263.30827,553.55015 c 10.92971,-2.63908 31.34967,-3.82518 66.34486,-3.85363 48.9973,-0.0397 50.72699,-0.22368 56.12365,-5.96216 10.27525,-10.92623 2.66333,-33.6401 -21.72706,-64.83334 -21.92349,-28.03829 -55.30505,-50.3691 -81.02192,-54.20016 -15.63056,-2.3285 -37.89619,5.87821 -51.32061,18.91585 -22.31413,21.67121 -33.7307,65.56697 -23.80945,91.54536 8.44055,22.10127 21.746,26.51671 55.41053,18.38808 l 0,0 z"
       id="path3018"
       inkscape:connector-curvature="0" />
    <path
       style="fill:#803300"
       d="m 90.93985,758.33124 c -27.305929,-4.43621 -47.945199,-20.04668 -51.490497,-38.94475 -2.216563,-11.8153 2.647308,-51.23076 8.4666,-68.61096 6.008111,-17.94415 20.12662,-38.59966 32.015078,-46.83837 8.349582,-5.78627 16.36504,-8.87357 16.240742,-6.25543 -0.01718,0.36184 -1.779439,7.17105 -3.916134,15.13158 -8.095574,30.16108 -3.549316,57.89474 9.490431,57.89474 6.43515,0 20.15849,-6.74853 27.67324,-13.60848 7.23786,-6.60717 8.00914,-4.57754 10.34305,27.21754 2.17165,29.5846 -1.66273,51.52867 -10.92779,62.53957 -5.67388,6.74303 -9.99559,8.6087 -27.3684,11.8149 -2.171057,0.40067 -6.907899,0.24753 -10.52632,-0.34034 z"
       id="path3020"
       inkscape:connector-curvature="0" />
    <path
       style="fill:#cadfe5;fill-opacity:1"
       d="M 518.03048,968.12144 C 403.27235,921.50039 271.33269,786.05065 197.56373,639.1291 182.83944,609.80355 158.65789,548.86439 150.57252,520.70805 134.55939,464.94418 129.85466,394.42505 139.07287,348.33963 152.2482,282.471 183.32162,224.87814 228.75244,182.12353 c 25.95353,-24.42467 37.96568,-32.69449 68.29737,-47.01962 66.40904,-31.36384 137.98949,-33.01853 184.67951,-4.26914 71.77732,44.1969 112.60595,149.64131 124.97745,322.76801 5.43255,76.02293 2.50755,223.95703 -6.65929,336.79798 -2.11445,26.02837 -3.86884,48.52837 -3.89866,50 -0.0297,1.47166 -3.6445,-7.98219 -8.03271,-21.0085 -15.55481,-46.17427 -36.10563,-81.81019 -53.97055,-93.58711 -5.07361,-3.34463 -12.29871,-5.06831 -21.29276,-5.07976 -11.73242,-0.0158 -14.74274,1.11203 -21.78735,8.15666 -17.29644,17.29644 -22.57052,39.81623 -20.43965,87.27558 2.46902,54.99086 18.38094,95.60371 55.13918,140.73463 8.54669,10.49342 14.56924,19.04602 13.38345,19.00576 -1.18576,-0.0403 -10.68884,-3.53971 -21.11795,-7.77658 z M 324.10619,551.51097 c 41.54499,-2.26511 59.40471,-4.2034 62.5,-6.78303 15.38626,-12.82302 -12.62923,-65.38868 -50.9295,-95.55942 -22.30657,-17.57181 -38.70289,-24.33676 -59.21052,-24.42966 -15.41573,-0.0697 -20.41514,1.08879 -30.6437,7.10179 -25.16494,14.79353 -39.42766,40.6945 -41.23039,74.87408 -0.95644,18.13411 -0.24626,23.37042 4.49926,33.17332 7.50533,15.50392 13.09051,17.94423 37.11167,16.21505 10.85526,-0.78142 45.91169,-2.84787 77.90318,-4.59213 z"
       id="path3022"
       inkscape:connector-curvature="0" />
    <path
       style="fill:#a50c00;fill-opacity:1"
       d="M 74.263642,751.25251 C 44.93387,738.91998 39.558594,729.65113 41.815046,695.29984 c 2.560957,-38.98692 13.816015,-66.10883 35.601438,-85.79065 12.530016,-11.32012 17.608405,-12.65226 14.992339,-3.93272 -0.977052,3.25658 -2.461389,16.2435 -3.298526,28.85982 -1.244121,18.74983 -0.724405,24.15615 2.845984,29.60526 5.885458,8.98234 15.891879,8.64127 31.194349,-1.06327 l 12.18857,-7.72976 1.80126,14.41681 c 3.0972,24.78918 0.27604,59.41635 -5.67302,69.63104 -10.23283,17.57002 -32.689819,22.26374 -57.203798,11.95614 l 0,0 z"
       id="path3024"
       inkscape:connector-curvature="0" />
    <path
       style="fill:#000000;fill-opacity:0"
       d="M 513.57143,964.32313 C 409.51282,920.17044 286.10115,796.34389 211.76046,661.49752 183.10021,609.51078 156.51906,542.09486 146.10275,494.97447 137.85693,457.67268 134.504,383.55252 139.69689,353.36566 c 4.25643,-24.74318 19.27325,-68.92907 31.02873,-91.29979 27.9014,-53.09645 74.42937,-99.65037 122.70726,-122.77566 38.06971,-18.23555 60.07908,-24.00911 97.77013,-25.64736 34.51134,-1.50004 57.67,2.22439 78.34558,12.59974 73.38271,36.82463 115.1741,131.14114 133.975,302.36019 6.9975,63.72582 1.94471,332.02598 -7.40461,393.18169 l -1.57263,10.28692 -8.60992,-22.27047 c -17.28671,-44.71393 -35.20266,-74.68656 -50.17426,-83.93953 -5.63161,-3.48053 -13.03408,-5.15334 -22.80437,-5.15334 -18.13829,0 -25.34982,5.23858 -35.40785,25.72089 -7.22821,14.71961 -7.39236,16.04369 -7.08836,57.17384 0.25105,33.95327 1.39321,46.11919 5.89965,62.83727 7.73877,28.70934 21.28945,55.65566 41.39008,82.3066 9.39056,12.45069 16.73245,22.93311 16.31535,23.29427 -0.41714,0.36115 -9.63998,-3.11185 -20.49524,-7.71779 l 0,0 z M 313.22639,553.35452 c 35.45648,-2.3076 67.17701,-5.22626 70.49008,-6.48587 27.50477,-10.45731 -22.19197,-90.32876 -71.08837,-114.25152 -19.17931,-9.38358 -45.61349,-11.76832 -60.41851,-5.45061 -27.63515,11.79266 -45.25343,40.45345 -48.16686,78.35619 -1.52652,19.85939 -1.05792,23.92536 3.94946,34.26926 9.59334,19.81718 9.43825,19.79721 105.2342,13.56255 z"
       id="path3826"
       inkscape:connector-curvature="0" />
    <path
       style="fill:#000077;fill-opacity:0"
       d="M 513.57143,964.32313 C 409.51282,920.17044 286.10115,796.34389 211.76046,661.49752 183.10021,609.51078 156.51906,542.09486 146.10275,494.97447 137.85693,457.67268 134.504,383.55252 139.69689,353.36566 c 4.25643,-24.74318 19.27325,-68.92907 31.02873,-91.29979 27.9014,-53.09645 74.42937,-99.65037 122.70726,-122.77566 38.06971,-18.23555 60.07908,-24.00911 97.77013,-25.64736 34.51134,-1.50004 57.67,2.22439 78.34558,12.59974 73.38271,36.82463 115.1741,131.14114 133.975,302.36019 6.9975,63.72582 1.94471,332.02598 -7.40461,393.18169 l -1.57263,10.28692 -8.60992,-22.27047 c -17.28671,-44.71393 -35.20266,-74.68656 -50.17426,-83.93953 -5.63161,-3.48053 -13.03408,-5.15334 -22.80437,-5.15334 -18.13829,0 -25.34982,5.23858 -35.40785,25.72089 -7.22821,14.71961 -7.39236,16.04369 -7.08836,57.17384 0.25105,33.95327 1.39321,46.11919 5.89965,62.83727 7.73877,28.70934 21.28945,55.65566 41.39008,82.3066 9.39056,12.45069 16.73245,22.93311 16.31535,23.29427 -0.41714,0.36115 -9.63998,-3.11185 -20.49524,-7.71779 l 0,0 z M 313.22639,553.35452 c 35.45648,-2.3076 67.17701,-5.22626 70.49008,-6.48587 27.50477,-10.45731 -22.19197,-90.32876 -71.08837,-114.25152 -19.17931,-9.38358 -45.61349,-11.76832 -60.41851,-5.45061 -27.63515,11.79266 -45.25343,40.45345 -48.16686,78.35619 -1.52652,19.85939 -1.05792,23.92536 3.94946,34.26926 9.59334,19.81718 9.43825,19.79721 105.2342,13.56255 z"
       id="path3828"
       inkscape:connector-curvature="0" />
    <path
       style="fill:#000077;fill-opacity:0"
       d="M 513.57143,964.32313 C 409.51282,920.17044 286.10115,796.34389 211.76046,661.49752 183.10021,609.51078 156.51906,542.09486 146.10275,494.97447 137.85693,457.67268 134.504,383.55252 139.69689,353.36566 c 4.25643,-24.74318 19.27325,-68.92907 31.02873,-91.29979 27.9014,-53.09645 74.42937,-99.65037 122.70726,-122.77566 38.06971,-18.23555 60.07908,-24.00911 97.77013,-25.64736 34.51134,-1.50004 57.67,2.22439 78.34558,12.59974 73.38271,36.82463 115.1741,131.14114 133.975,302.36019 6.9975,63.72582 1.94471,332.02598 -7.40461,393.18169 l -1.57263,10.28692 -8.60992,-22.27047 c -17.28671,-44.71393 -35.20266,-74.68656 -50.17426,-83.93953 -5.63161,-3.48053 -13.03408,-5.15334 -22.80437,-5.15334 -18.13829,0 -25.34982,5.23858 -35.40785,25.72089 -7.22821,14.71961 -7.39236,16.04369 -7.08836,57.17384 0.25105,33.95327 1.39321,46.11919 5.89965,62.83727 7.73877,28.70934 21.28945,55.65566 41.39008,82.3066 9.39056,12.45069 16.73245,22.93311 16.31535,23.29427 -0.41714,0.36115 -9.63998,-3.11185 -20.49524,-7.71779 l 0,0 z M 313.22639,553.35452 c 35.45648,-2.3076 67.17701,-5.22626 70.49008,-6.48587 27.50477,-10.45731 -22.19197,-90.32876 -71.08837,-114.25152 -19.17931,-9.38358 -45.61349,-11.76832 -60.41851,-5.45061 -27.63515,11.79266 -45.25343,40.45345 -48.16686,78.35619 -1.52652,19.85939 -1.05792,23.92536 3.94946,34.26926 9.59334,19.81718 9.43825,19.79721 105.2342,13.56255 z"
       id="path3830"
       inkscape:connector-curvature="0" />
    <path
       style="fill:#000077;fill-opacity:0"
       d="M 513.57143,964.32313 C 409.51282,920.17044 286.10115,796.34389 211.76046,661.49752 183.10021,609.51078 156.51906,542.09486 146.10275,494.97447 137.85693,457.67268 134.504,383.55252 139.69689,353.36566 c 4.25643,-24.74318 19.27325,-68.92907 31.02873,-91.29979 27.9014,-53.09645 74.42937,-99.65037 122.70726,-122.77566 38.06971,-18.23555 60.07908,-24.00911 97.77013,-25.64736 34.51134,-1.50004 57.67,2.22439 78.34558,12.59974 73.38271,36.82463 115.1741,131.14114 133.975,302.36019 6.9975,63.72582 1.94471,332.02598 -7.40461,393.18169 l -1.57263,10.28692 -8.60992,-22.27047 c -17.28671,-44.71393 -35.20266,-74.68656 -50.17426,-83.93953 -5.63161,-3.48053 -13.03408,-5.15334 -22.80437,-5.15334 -18.13829,0 -25.34982,5.23858 -35.40785,25.72089 -7.22821,14.71961 -7.39236,16.04369 -7.08836,57.17384 0.25105,33.95327 1.39321,46.11919 5.89965,62.83727 7.73877,28.70934 21.28945,55.65566 41.39008,82.3066 9.39056,12.45069 16.73245,22.93311 16.31535,23.29427 -0.41714,0.36115 -9.63998,-3.11185 -20.49524,-7.71779 l 0,0 z M 313.22639,553.35452 c 35.45648,-2.3076 67.17701,-5.22626 70.49008,-6.48587 27.50477,-10.45731 -22.19197,-90.32876 -71.08837,-114.25152 -19.17931,-9.38358 -45.61349,-11.76832 -60.41851,-5.45061 -27.63515,11.79266 -45.25343,40.45345 -48.16686,78.35619 -1.52652,19.85939 -1.05792,23.92536 3.94946,34.26926 9.59334,19.81718 9.43825,19.79721 105.2342,13.56255 z"
       id="path3832"
       inkscape:connector-curvature="0" />
    <path
       style="fill:#0000c6;fill-opacity:0"
       d="M 513.57143,964.32313 C 409.51282,920.17044 286.10115,796.34389 211.76046,661.49752 183.10021,609.51078 156.51906,542.09486 146.10275,494.97447 137.85693,457.67268 134.504,383.55252 139.69689,353.36566 c 4.25643,-24.74318 19.27325,-68.92907 31.02873,-91.29979 27.9014,-53.09645 74.42937,-99.65037 122.70726,-122.77566 38.06971,-18.23555 60.07908,-24.00911 97.77013,-25.64736 34.51134,-1.50004 57.67,2.22439 78.34558,12.59974 73.38271,36.82463 115.1741,131.14114 133.975,302.36019 6.9975,63.72582 1.94471,332.02598 -7.40461,393.18169 l -1.57263,10.28692 -8.60992,-22.27047 c -17.28671,-44.71393 -35.20266,-74.68656 -50.17426,-83.93953 -5.63161,-3.48053 -13.03408,-5.15334 -22.80437,-5.15334 -18.13829,0 -25.34982,5.23858 -35.40785,25.72089 -7.22821,14.71961 -7.39236,16.04369 -7.08836,57.17384 0.25105,33.95327 1.39321,46.11919 5.89965,62.83727 7.73877,28.70934 21.28945,55.65566 41.39008,82.3066 9.39056,12.45069 16.73245,22.93311 16.31535,23.29427 -0.41714,0.36115 -9.63998,-3.11185 -20.49524,-7.71779 l 0,0 z M 313.22639,553.35452 c 35.45648,-2.3076 67.17701,-5.22626 70.49008,-6.48587 27.50477,-10.45731 -22.19197,-90.32876 -71.08837,-114.25152 -19.17931,-9.38358 -45.61349,-11.76832 -60.41851,-5.45061 -27.63515,11.79266 -45.25343,40.45345 -48.16686,78.35619 -1.52652,19.85939 -1.05792,23.92536 3.94946,34.26926 9.59334,19.81718 9.43825,19.79721 105.2342,13.56255 z"
       id="path3834"
       inkscape:connector-curvature="0" />
    <path
       style="fill:#0000c6;fill-opacity:0"
       d="M 513.57143,964.32313 C 409.51282,920.17044 286.10115,796.34389 211.76046,661.49752 183.10021,609.51078 156.51906,542.09486 146.10275,494.97447 137.85693,457.67268 134.504,383.55252 139.69689,353.36566 c 4.25643,-24.74318 19.27325,-68.92907 31.02873,-91.29979 27.9014,-53.09645 74.42937,-99.65037 122.70726,-122.77566 38.06971,-18.23555 60.07908,-24.00911 97.77013,-25.64736 34.51134,-1.50004 57.67,2.22439 78.34558,12.59974 73.38271,36.82463 115.1741,131.14114 133.975,302.36019 6.9975,63.72582 1.94471,332.02598 -7.40461,393.18169 l -1.57263,10.28692 -8.60992,-22.27047 c -17.28671,-44.71393 -35.20266,-74.68656 -50.17426,-83.93953 -5.63161,-3.48053 -13.03408,-5.15334 -22.80437,-5.15334 -18.13829,0 -25.34982,5.23858 -35.40785,25.72089 -7.22821,14.71961 -7.39236,16.04369 -7.08836,57.17384 0.25105,33.95327 1.39321,46.11919 5.89965,62.83727 7.73877,28.70934 21.28945,55.65566 41.39008,82.3066 9.39056,12.45069 16.73245,22.93311 16.31535,23.29427 -0.41714,0.36115 -9.63998,-3.11185 -20.49524,-7.71779 l 0,0 z M 313.22639,553.35452 c 35.45648,-2.3076 67.17701,-5.22626 70.49008,-6.48587 27.50477,-10.45731 -22.19197,-90.32876 -71.08837,-114.25152 -19.17931,-9.38358 -45.61349,-11.76832 -60.41851,-5.45061 -27.63515,11.79266 -45.25343,40.45345 -48.16686,78.35619 -1.52652,19.85939 -1.05792,23.92536 3.94946,34.26926 9.59334,19.81718 9.43825,19.79721 105.2342,13.56255 z"
       id="path3836"
       inkscape:connector-curvature="0" />
    <path
       style="fill:#0000ff;fill-opacity:0"
       d="M 513.57143,964.32313 C 409.51282,920.17044 286.10115,796.34389 211.76046,661.49752 183.10021,609.51078 156.51906,542.09486 146.10275,494.97447 137.85693,457.67268 134.504,383.55252 139.69689,353.36566 c 4.25643,-24.74318 19.27325,-68.92907 31.02873,-91.29979 27.9014,-53.09645 74.42937,-99.65037 122.70726,-122.77566 38.06971,-18.23555 60.07908,-24.00911 97.77013,-25.64736 34.51134,-1.50004 57.67,2.22439 78.34558,12.59974 73.38271,36.82463 115.1741,131.14114 133.975,302.36019 6.9975,63.72582 1.94471,332.02598 -7.40461,393.18169 l -1.57263,10.28692 -8.60992,-22.27047 c -17.28671,-44.71393 -35.20266,-74.68656 -50.17426,-83.93953 -5.63161,-3.48053 -13.03408,-5.15334 -22.80437,-5.15334 -18.13829,0 -25.34982,5.23858 -35.40785,25.72089 -7.22821,14.71961 -7.39236,16.04369 -7.08836,57.17384 0.25105,33.95327 1.39321,46.11919 5.89965,62.83727 7.73877,28.70934 21.28945,55.65566 41.39008,82.3066 9.39056,12.45069 16.73245,22.93311 16.31535,23.29427 -0.41714,0.36115 -9.63998,-3.11185 -20.49524,-7.71779 l 0,0 z M 313.22639,553.35452 c 35.45648,-2.3076 67.17701,-5.22626 70.49008,-6.48587 27.50477,-10.45731 -22.19197,-90.32876 -71.08837,-114.25152 -19.17931,-9.38358 -45.61349,-11.76832 -60.41851,-5.45061 -27.63515,11.79266 -45.25343,40.45345 -48.16686,78.35619 -1.52652,19.85939 -1.05792,23.92536 3.94946,34.26926 9.59334,19.81718 9.43825,19.79721 105.2342,13.56255 z"
       id="path3838"
       inkscape:connector-curvature="0" />
    <path
       style="fill:#0000ff;fill-opacity:1"
       d="M 513.57143,964.32313 C 409.51282,920.17044 286.10115,796.34389 211.76046,661.49752 183.10021,609.51078 156.51906,542.09486 146.10275,494.97447 137.85693,457.67268 134.504,383.55252 139.69689,353.36566 c 4.25643,-24.74318 19.27325,-68.92907 31.02873,-91.29979 27.9014,-53.09645 74.42937,-99.65037 122.70726,-122.77566 38.06971,-18.23555 60.07908,-24.00911 97.77013,-25.64736 34.51134,-1.50004 57.67,2.22439 78.34558,12.59974 73.38271,36.82463 115.1741,131.14114 133.975,302.36019 6.9975,63.72582 1.94471,332.02598 -7.40461,393.18169 l -1.57263,10.28692 -8.60992,-22.27047 c -17.28671,-44.71393 -35.20266,-74.68656 -50.17426,-83.93953 -5.63161,-3.48053 -13.03408,-5.15334 -22.80437,-5.15334 -18.13829,0 -25.34982,5.23858 -35.40785,25.72089 -7.22821,14.71961 -7.39236,16.04369 -7.08836,57.17384 0.25105,33.95327 1.39321,46.11919 5.89965,62.83727 7.73877,28.70934 21.28945,55.65566 41.39008,82.3066 9.39056,12.45069 16.73245,22.93311 16.31535,23.29427 -0.41714,0.36115 -9.63998,-3.11185 -20.49524,-7.71779 l 0,0 z M 313.22639,553.35452 c 35.45648,-2.3076 67.17701,-5.22626 70.49008,-6.48587 27.50477,-10.45731 -22.19197,-90.32876 -71.08837,-114.25152 -19.17931,-9.38358 -45.61349,-11.76832 -60.41851,-5.45061 -27.63515,11.79266 -45.25343,40.45345 -48.16686,78.35619 -1.52652,19.85939 -1.05792,23.92536 3.94946,34.26926 9.59334,19.81718 9.43825,19.79721 105.2342,13.56255 z"
       id="path3840"
       inkscape:connector-curvature="0" />
    <path
       style="fill:#e2e8ef;fill-opacity:1"
       d="M 500.98619,956.37334 C 452.63267,932.83918 404.92906,896.83452 352.94489,844.63802 255.99246,747.28957 188.61351,636.66731 154.03937,518.07647 c -9.69372,-33.24992 -14.05001,-69.84298 -14.10394,-118.47395 -0.0394,-35.51186 0.9271,-47.07898 5.2771,-63.15789 16.51889,-61.05881 37.62252,-100.02665 75.82739,-140.01524 34.58472,-36.19942 63.72922,-54.70388 111.71178,-70.92818 20.64215,-6.97971 29.26148,-8.38785 58.06074,-9.48536 38.71878,-1.47552 55.46359,1.26973 79.72778,13.07112 56.78787,27.61994 97.86466,102.3223 119.114,216.62108 14.22337,76.50647 14.72408,84.08444 14.43252,218.42105 -0.24552,113.09837 -2.9975,197.95708 -7.95579,245.31489 l -1.71365,16.36753 -12.4324,-28.80524 c -14.66558,-33.97944 -26.83345,-54.80318 -38.80063,-66.40223 -7.69189,-7.45527 -10.70118,-8.52821 -26.38434,-9.40711 -20.87269,-1.16973 -27.67782,2.75553 -39.40626,22.7299 -6.4979,11.06637 -7.32269,15.29855 -8.17864,41.96708 -2.2055,68.71702 9.35961,109.39139 46.00177,161.78781 7.84439,11.21711 13.26179,20.39474 12.03863,20.39474 -1.22313,0 -13.04432,-5.2664 -26.26924,-11.70313 l 0,0 z M 326.71423,553.47981 c 63.67344,-4.795 67.12777,-6.05242 65.13741,-23.71087 -3.9529,-35.07005 -53.2124,-90.75705 -90.71666,-102.55358 -22.00383,-6.92105 -46.23866,-4.62163 -61.38906,5.82466 -23.01107,15.86629 -36.70081,45.74142 -36.70081,80.09226 0,20.58653 4.43444,33.801 13.46546,40.12658 7.96771,5.58079 38.22367,5.64145 110.20366,0.22106 l 0,-1.1e-4 z"
       id="path3844"
       inkscape:connector-curvature="0" />
  </g>
</svg>
